<svg width="1349" height="678" viewBox="0 0 1349 678" fill="none" xmlns="http://www.w3.org/2000/svg">
<path d="M837.764 526.854C837.536 526.292 837.35 526.752 837.35 527.875C837.35 528.999 837.536 529.458 837.764 528.897C837.991 528.335 837.991 527.416 837.764 526.854Z" fill="#1E1E1E"/>
<path d="M826.329 414.191C820.573 422.867 816.75 436.95 817.427 446.979L817.786 452.29L819.222 444.936C822.393 428.702 831.252 412.37 840.27 406.133C841.722 405.129 844.655 402.27 846.787 399.78L850.664 395.253L847.014 397.603C837.913 403.464 828.366 411.12 826.329 414.191Z" fill="#1E1E1E"/>
<path d="M810.575 412.718C809.299 417.5 808.93 435.607 809.966 442.575C810.502 446.176 810.623 445.685 811.19 437.582C812.83 414.17 819.18 401.629 834.59 391.37C842.507 386.1 842.554 386.049 837.614 388.107C822.166 394.545 813.26 402.65 810.575 412.718Z" fill="#1E1E1E"/>
<path d="M838.038 395.656C824.385 403.782 817.847 412.457 817.021 423.541L816.584 429.41L819.521 423.44C825.65 410.98 833.972 400.168 841.37 395.053C846.594 391.442 844.476 391.825 838.038 395.656Z" fill="#1E1E1E"/>
<path d="M805.383 400.166C803.887 403.013 799.754 415.223 799.219 418.379C798.83 420.669 799.037 420.417 800.261 417.111C802.687 410.559 804.064 408.329 810.009 401.319C815.586 394.742 823.721 387.601 828.366 385.205C832.12 383.268 830.563 382.978 825.901 384.745C815.665 388.625 808.694 393.864 805.383 400.166Z" fill="#1E1E1E"/>
<path d="M806.216 383.207C799.868 388.478 797.851 392.648 797.286 401.669C796.981 406.547 797.129 408.573 797.789 408.573C798.303 408.573 798.724 408.003 798.724 407.307C798.724 403.487 807.296 392.428 814.615 386.805C817.363 384.695 819.969 382.654 820.407 382.269C822.047 380.831 811.298 385.01 808.349 386.957C806.659 388.072 805.276 388.675 805.276 388.296C805.276 387.916 807.386 385.28 809.965 382.437C815.142 376.73 813.648 377.037 806.216 383.207Z" fill="#1E1E1E"/>
<path d="M793.105 380.943C790.741 385.767 787.169 400.692 787.291 405.239C787.31 405.949 788.173 404.508 789.21 402.036C792.576 394.004 795.238 389.373 798.857 385.248C804.814 378.459 809.71 372.365 808.906 372.742C804.955 374.592 800.169 376.705 799.927 376.705C799.763 376.705 800.02 375.583 800.499 374.212C801.512 371.313 800.941 370.305 799.133 371.802C798.436 372.38 797.754 372.708 797.618 372.531C796.073 370.53 793.936 366.228 794.305 365.86C794.565 365.6 794.355 364.716 793.837 363.896C793.288 363.028 793.026 362.907 793.208 363.608C793.38 364.269 792.331 366.366 790.877 368.267C787.51 372.666 784.184 379.676 782.232 386.484C780.039 394.135 780.371 394.97 783.388 389.383C785.574 385.333 797.042 372.035 796.082 374.662C795.918 375.112 794.578 377.938 793.105 380.943Z" fill="#1E1E1E"/>
<path d="M877.074 385.957C876.578 385.461 870.007 388.657 867.528 390.601C866.401 391.484 868.169 390.88 871.456 389.259C874.742 387.639 877.271 386.153 877.074 385.957Z" fill="#1E1E1E"/>
<path d="M869.574 382.141C868.674 382.81 867.016 384.097 865.889 385.001C864.227 386.335 864.15 386.542 865.48 386.102C866.381 385.803 869.023 385.357 871.352 385.11C875.492 384.671 875.565 384.618 874.675 382.669C874 381.191 874.013 380.018 874.727 378.131C875.839 375.192 875.251 374.003 873.718 376.094C872.4 377.891 870.804 377.943 870.804 376.189C870.804 374.548 875.661 369.882 879.691 367.651C882.931 365.858 882.552 365.893 873.869 368.197C871.275 368.885 867.784 369.335 866.111 369.195L863.07 368.942L868.37 365.604C871.285 363.767 874.592 361.862 875.718 361.369C877.755 360.478 877.752 360.473 875.136 360.417C873.689 360.387 869.279 361.113 865.335 362.03C855.045 364.424 853.575 363.874 860.565 360.247C863.719 358.61 867.523 357.012 869.019 356.696C870.516 356.38 871.621 356.007 871.477 355.868C871.194 355.595 859.399 356.706 854.012 357.512L850.736 358.002L852.784 356.346C855.319 354.295 861.269 352.191 864.533 352.191C868.513 352.191 866.555 351.382 858.674 349.771C854.605 348.94 850.613 347.889 849.802 347.436C848.119 346.496 849.589 346.159 859.746 345.152L865.48 344.583L860.156 343.475C852.285 341.835 847.427 340.07 845.773 338.247C844.318 336.643 844.363 336.631 850.387 337.07L856.47 337.513L851.146 335.402C848.217 334.242 845.269 332.723 844.593 332.028C843.491 330.893 843.628 330.798 845.93 331.107C848.371 331.435 848.172 331.124 841.835 324.732C834.504 317.337 827.372 312.132 824.647 312.187C823.438 312.212 823.833 312.56 825.911 313.3C829.516 314.584 833.769 317.983 835.89 321.276C837.958 324.487 837.094 325.01 833.794 322.545C830.256 319.904 823.228 316.237 821.703 316.237C820.961 316.237 821.616 317.4 823.43 319.301C825.038 320.986 827.646 324.755 829.225 327.677C830.805 330.598 833.035 334.643 834.181 336.665C835.327 338.688 836.851 343.468 837.568 347.288C838.285 351.108 839.406 355.705 840.058 357.502C841.651 361.889 841.612 366.037 839.961 367.856C837.666 370.386 840.042 369.506 842.545 366.899C843.84 365.551 845.383 364.448 845.975 364.448C848.418 364.448 846.058 371.883 843.277 372.948C842.52 373.238 842.05 373.623 842.232 373.805C842.414 373.986 844.586 373.438 847.059 372.587C855.928 369.533 857.713 371.056 850.69 375.683C846.435 378.487 846.506 378.784 851.146 377.597C855.495 376.485 865.07 375.853 865.07 376.677C865.07 377.078 863.228 378.596 860.976 380.052C858.724 381.508 856.999 382.817 857.143 382.96C857.287 383.104 859.559 382.466 862.192 381.543C865.125 380.514 867.799 380.069 869.095 380.394C871.17 380.913 871.179 380.948 869.574 382.141Z" fill="#1E1E1E"/>
<path d="M781.366 365.868C778.156 370.08 776.11 375.676 775.535 381.812C775.335 383.947 775.265 385.693 775.38 385.693C775.495 385.693 776.428 383.458 777.452 380.725C778.476 377.993 780.742 373.554 782.486 370.861C787.673 362.855 786.761 358.789 781.366 365.868Z" fill="#1E1E1E"/>
<path fill-rule="evenodd" clip-rule="evenodd" d="M499.327 589H518.883C519.349 588.615 519.818 587.979 520.289 587.599C535.069 575.665 545.816 569.795 569.989 560.447C590.93 552.35 596.082 549.794 614.121 538.552C631.244 527.882 638.083 522.589 642.716 516.42C646.992 510.729 659.598 490.489 664.847 480.89C667.755 475.572 670.567 471.876 675.003 467.541C678.377 464.245 681.26 461.915 681.41 462.364C681.56 462.813 680.573 466.981 679.217 471.626C675.448 484.543 671.965 499.325 671.431 504.674L670.95 509.49L673.081 503.514C674.252 500.228 675.355 497.682 675.531 497.858C675.706 498.033 675.495 500.906 675.061 504.242C674.627 507.577 674.274 513.616 674.276 517.661L674.279 525.015L679.874 511.941L679.93 527.467C679.963 536.701 680.488 546.469 681.225 551.572C681.907 556.291 683.006 566.198 683.667 573.587C684.038 577.736 684.663 583.437 685.374 589H703.387C700.617 576.83 698.973 565.414 698.403 555.006C698.174 550.828 697.754 546.483 697.469 545.352C697.184 544.22 696.721 537.159 696.439 529.66L695.927 516.027L694.533 521.747C692.144 531.544 691.358 536.842 690.286 550.346L689.249 563.421L688.493 557.701C687.296 548.653 687.751 523.705 689.282 514.392C691.386 501.593 695.56 481.131 696.442 479.29C697.766 476.53 693.377 481.937 687.992 489.702C685.254 493.65 682.83 496.696 682.604 496.471C682.157 496.024 691.604 476.633 697.361 466.181C699.341 462.586 702.553 456.703 704.498 453.107L708.034 446.57L703.324 451.064C700.734 453.536 696.813 457.692 694.609 460.299C692.406 462.907 690.61 464.562 690.617 463.977C690.667 460.097 702.459 437.323 712.428 421.852C713.949 419.492 715.081 417.562 714.945 417.562C714.809 417.562 711.592 419.933 707.796 422.831C704 425.729 700.746 427.952 700.564 427.771C700.002 427.211 705.311 418.347 711.084 410.207C714.112 405.938 718.301 399.871 720.393 396.725C722.485 393.579 724.839 390.1 725.625 388.993C726.984 387.079 726.875 387.101 723.367 389.455C717.275 393.542 711.9 396.433 711.9 395.623C711.9 395.204 716.364 388.872 721.82 381.552C734.952 363.935 741.816 356.73 746.285 355.871C748.812 355.385 748.321 356.545 743.624 362.154C739.421 367.172 736.212 371.754 734.019 375.867C733.322 377.175 734.793 376.211 738.188 373.134C743.947 367.915 750.414 364.192 752.4 364.952C754.808 365.874 753.685 370.216 748.03 381.848C736.256 406.066 731.351 421.553 729.656 439.869C729.456 442.026 729.448 443.636 729.637 443.447C729.827 443.258 730.872 439.784 731.961 435.726C734.548 426.081 741.814 409.413 746.12 403.246C753.394 392.826 753.88 392.96 748.399 403.875C740.657 419.293 738.923 427.004 738.525 447.796C738.264 461.448 738.334 462.677 739.013 456.376C740.043 446.819 743.795 431.938 747.482 422.784C750.809 414.526 750.809 414.548 747.631 435.13C744.964 452.402 744.851 462.504 747.221 471.931C748.178 475.735 749.191 478.844 749.474 478.84C749.756 478.837 750.027 474.884 750.075 470.056C750.159 461.539 751.612 452.068 753.99 444.527C755.141 440.879 755.15 440.924 755.231 450.376C755.37 466.802 758.066 483.122 763.578 500.91C765.983 508.668 766.488 506.534 764.69 496.214C763.154 487.4 762.718 470.362 764.021 463.553C764.45 461.306 765.283 461.776 765.336 462.677C765.389 463.579 765.7 465.245 766.385 471.079C768.383 488.118 772.007 504.041 778.662 525.015C789.515 559.219 793.747 575.093 795.152 589H803.696C802.779 573.931 798.909 560.854 784.417 520.112C779.176 505.38 776.928 496.606 776.252 488.244L775.789 482.524L777.776 489.47C780.141 497.732 785.37 510.745 791.688 524.091C804.351 550.842 809.905 571.146 809.124 589L847.408 569.141C846.238 558.074 856.855 570.88 851.627 557C855.592 557.111 851.097 555.595 850.845 554.927C850.634 554.367 850.428 553.823 850.228 553.293C846.017 542.148 844.298 537.598 843.903 532.937C843.63 529.722 843.987 526.453 844.591 520.93C844.682 520.095 844.779 519.209 844.88 518.264C845.75 510.131 884.807 494.148 885.952 488.38C888.183 477.139 889.602 463.1 889.641 451.882C889.643 451.223 889.643 450.606 889.643 450.028C889.64 445.807 889.638 443.686 890.7 442.629C891.772 441.563 893.926 441.58 898.256 441.615C898.843 441.62 899.469 441.625 900.138 441.628C908.421 441.662 910.152 441.43 912.987 439.909C921.862 435.146 928.24 427.68 929.887 420.128C930.439 417.593 931.711 414.522 932.712 413.304C937.821 407.088 938.379 397.43 934.307 385.693C932.611 380.804 932.286 378.711 932.704 375.34C933.141 371.813 932.977 370.915 931.707 369.896C930.872 369.225 924.29 364.272 917.082 358.891C909.874 353.51 901.406 346.941 898.265 344.295C892.568 339.496 892.55 339.467 891.586 333.784C891.055 330.65 890.51 327.718 890.375 327.268C890.241 326.819 891.944 323.693 894.16 320.322C900.341 310.922 904.428 294.273 901.763 289.351C899.392 284.973 896.395 285.049 889.953 289.654C881.394 295.772 869.909 303.358 869.652 303.063C869.503 302.893 868.852 301.725 868.206 300.467C867.213 298.535 867.191 297.265 868.065 292.295C871.01 275.557 867.324 250.389 859.662 234.923C852.606 220.68 843.298 211.837 827.157 204.038C826.429 203.686 825.747 203.36 825.11 203.055C820.12 200.663 817.877 199.588 817.372 197.973C816.96 196.655 817.704 194.978 819.054 191.932C819.265 191.455 819.492 190.945 819.73 190.398C821.847 185.547 822.787 179.461 822.887 175.047C822.976 171.114 822.009 165.367 819.303 160.39C814.292 151.171 803.226 142.824 790.336 138.539C781.665 135.657 778.246 136.753 778.246 142.415C778.246 145.496 783.951 153.464 790.819 159.978C794.266 163.246 797.083 166.556 797.081 167.332C797.068 171.174 794.789 175.638 788.747 183.652C780.617 194.437 778.807 198.235 778.722 204.698C778.624 212.149 781.618 217.528 789.979 224.923C801.842 235.415 808.153 242.321 811.22 248.163C816.129 257.517 818.335 268.265 817.203 277.309L816.642 281.785L812.666 280.136C809.694 278.904 808.556 277.94 808.162 276.321C806.804 270.748 799.853 264.757 794.743 264.757C793.779 264.757 792.99 264.322 792.99 263.789C792.99 263.257 792.212 261.219 791.262 259.261C789.266 255.148 782.801 250.886 778.54 250.874C776.418 250.867 775.868 250.472 775.404 248.619C773.961 242.846 767.629 238.105 760.19 237.227C757.248 236.879 756.04 236.343 755.686 235.228C754.442 231.321 743.52 226.626 737.419 227.377C734.842 227.694 733.95 227.314 731.018 224.649C727.189 221.168 722.024 219.424 717.856 220.204C715.819 220.586 714.307 220.282 712.265 219.08C707.85 216.481 703.482 215.588 699.523 216.475C696.746 217.098 695.539 216.98 693.529 215.892C691.815 214.964 688.924 214.509 684.46 214.466C680.585 214.429 675.899 213.787 672.993 212.894C668.596 211.545 667.266 211.487 660.363 212.347C652.757 213.295 652.607 213.28 649.715 211.296C645.633 208.495 642.792 207.559 638.333 207.547C635.711 207.54 632.967 206.764 629.67 205.096C626.09 203.285 623.708 202.655 620.437 202.655C616.915 202.655 614.699 201.987 609.401 199.33C575.695 182.423 538.632 176.965 507.359 184.302C494.93 187.218 484.93 191.225 465.353 201.135C445.966 210.949 440.169 212.936 421.606 216.134C415.147 217.246 409.911 218.556 409.516 219.16C409.132 219.745 408.914 221.326 409.032 222.675C409.213 224.755 409.989 225.524 414.16 227.755C416.863 229.202 422.087 231.483 425.769 232.824C443.707 239.361 457.572 239.404 485.469 233.006C511.918 226.941 523.063 226.213 542.757 229.263C555.723 231.271 566.307 234.988 582.074 243.071C588.9 246.57 591.947 248.674 594.647 251.751C596.607 253.984 599.372 256.402 600.79 257.123C602.209 257.845 605.029 259.963 607.056 261.831C609.083 263.698 612.032 265.707 613.609 266.295C615.185 266.883 619.24 268.574 622.619 270.054C638.372 276.952 650.411 279.139 679.083 280.31C690.541 280.778 701.508 281.517 703.454 281.951C715.161 284.568 733.204 291.829 738.111 295.897C739.787 297.286 739.861 297.494 738.52 297.04C734.539 295.692 725.878 294.201 721.958 294.188C719.607 294.18 713.71 294.766 708.853 295.491C703.005 296.364 697.874 296.633 693.659 296.288C685.277 295.602 684.051 296.263 684.051 301.47C684.051 303.654 684.83 307.962 685.783 311.043C691.65 330.016 704.375 343.292 722.446 349.297C725.884 350.439 729.341 351.373 730.127 351.373C731.804 351.373 731.871 351.714 730.647 353.997C729.57 356.004 707.839 384.791 700.089 394.477C697.122 398.185 695.156 401.251 695.721 401.291C696.285 401.331 698.539 401.302 700.729 401.226L704.712 401.087L688.556 416.708L692.037 416.727C693.951 416.737 695.518 416.884 695.518 417.054C695.518 418.142 687.306 431.878 684.276 435.859L680.611 440.674L689.375 439.56L679.546 445.976C666.698 454.364 660.066 461.402 652.91 474.244C636.219 504.198 631.211 509.884 607.875 525.384C592.381 535.674 584.213 539.956 567.113 546.747C537.464 558.523 517.712 570.772 499.327 589ZM818.018 567.915C818.702 558.067 817.505 549.55 813.952 538.98C811.261 530.976 800.431 507.106 799.783 507.752C799.448 508.086 803.614 522.814 809.403 541.767C813.401 554.854 815.893 567.623 816.008 575.612C816.08 580.575 816.191 580.991 816.785 578.538C817.167 576.965 817.721 572.184 818.018 567.915ZM837.6 545.444C838.261 541.652 838.75 533.072 838.765 525.015C838.78 517.375 839.084 509.101 839.441 506.63L840.092 502.135L842.833 513.575C844.34 519.867 845.785 525.935 846.044 527.058C846.41 528.653 846.718 528.025 847.444 524.198L848.376 519.295L849.459 523.694C850.824 529.237 850.192 545.389 848.385 551.125C847.684 553.352 847.244 555.307 847.408 555.47C848.221 556.281 858.96 532.633 862.166 522.972C867.504 506.886 868.654 499.191 868.026 483.75C867.499 470.757 865.957 459.437 864.865 460.528C864.527 460.866 864.251 470.434 864.251 481.79C864.251 503.668 863.521 510.066 860.204 517.252L858.507 520.93L859.127 515.21C860.092 506.289 859.568 491.673 857.88 480.481L856.34 470.267L855.762 481.298C855.247 491.117 853.038 512.369 852.473 512.932C852.354 513.051 851.811 508.647 851.266 503.147C849.493 485.242 849.302 483.75 848.787 483.75C848.238 483.751 845.466 496.896 845.328 500.153C845.12 505.064 843.73 495.737 843.248 486.201C842.787 477.084 843.151 471.592 844.98 460.053C845.352 457.707 844.918 458.221 842.567 462.913C839.109 469.814 836.68 479.141 835.76 489.061L835.078 496.415L834.402 487.473C833.229 471.934 834.701 461.36 840.111 446.448C843.24 437.825 843.714 435.613 841.241 441.174C839.115 445.954 838.409 444.912 839.618 438.78C840.793 432.824 842.653 428.327 846.979 420.99C852.237 412.07 852.751 411.853 850.234 419.611C848.933 423.619 847.869 427.081 847.869 427.303C847.869 427.526 849.679 424.781 851.891 421.205C856.88 413.14 863.748 405.511 868.317 402.96L871.785 401.024L868.954 405.129C867.397 407.387 865.685 411.016 865.15 413.194C864.615 415.372 863.963 417.889 863.703 418.787C863.243 420.372 863.288 420.369 865.173 418.685C868.958 415.305 870.699 414.906 881.109 415.028C892.634 415.163 900.502 414.136 909.447 411.329C916.292 409.182 919.363 406.558 920.367 402.001C921.051 398.892 919.988 397.598 913.043 393.084C909.033 390.477 906.907 389.675 902.907 389.258C898.627 388.812 897.403 388.301 894.973 385.947C891.425 382.51 891.002 379.838 893.412 376.093L894.594 374.255L897.964 376.479C901.07 378.53 901.986 378.706 909.678 378.726C917.572 378.747 918.185 378.624 921.034 376.459C922.69 375.2 924.045 373.84 924.045 373.437C924.045 373.033 921.188 370.797 917.697 368.468C909.935 363.291 889.573 347.499 882.129 340.885C879.122 338.214 875.889 335.487 874.943 334.827C873.794 334.024 873.407 333.152 873.774 332.196C874.273 330.899 874.393 330.889 875.066 332.089C875.76 333.326 880.699 335.848 882.426 335.848C883.403 335.848 882.738 333.401 880.206 327.677C879.113 325.205 877.804 321.537 877.297 319.526C876.459 316.204 876.275 316.006 875.283 317.36C874.281 318.727 874.014 318.504 872.074 314.684C870.909 312.392 869.687 310.526 869.356 310.537C869.026 310.549 867.516 313.123 866.001 316.257C864.486 319.392 863.196 321.956 863.134 321.956C863.073 321.955 863.02 319.105 863.017 315.623C863.014 310.791 862.631 308.662 861.407 306.635C859.344 303.221 858.517 303.275 858.517 306.825C858.517 310.663 856.68 321.14 856.006 321.14C855.709 321.14 855.219 319.025 854.915 316.441C854.118 309.641 851.627 305.065 847.196 302.262C843.044 299.635 842.121 299.729 843.999 302.588C845.582 304.999 847.872 312.572 847.861 315.364C847.855 317.047 847.47 316.642 845.919 313.319C844.855 311.04 842.555 307.982 840.808 306.523C837.931 304.121 823.601 296.613 821.936 296.635C821.558 296.639 823.276 298.49 825.754 300.747L830.259 304.85L825.344 302.466C822.641 301.155 818.955 299.47 817.153 298.722L813.877 297.362L820.98 304.593L816.609 303.087C810.922 301.128 802.024 301.052 798.059 302.93L795.098 304.331L799.511 305.605C805.263 307.265 805.671 308.623 800.616 309.278C798.449 309.559 795.755 310.006 794.628 310.272C792.602 310.75 792.606 310.761 795.062 311.313C798.635 312.116 806.814 316.994 812.81 321.898C813.125 322.155 809.411 322.365 804.558 322.365C796.403 322.365 795.488 322.528 792.484 324.512C788.968 326.834 785.864 332.363 786.764 334.701C787.244 335.95 787.507 335.898 789.326 334.194C791.689 331.978 791.775 332.186 790.123 336.131C788.434 340.164 788.57 340.523 790.942 338.299C793.053 336.321 793.652 337.174 792.136 340C790.704 342.668 792.999 342.656 799.345 339.962C806.577 336.892 812.698 336.641 817.74 339.206C822.256 341.505 832.998 352.547 834.924 356.871C837.119 361.799 836.114 363.544 826.68 371.189C824.057 373.315 823.941 372.949 826.188 369.645C829.412 364.905 828.984 360.577 824.646 354.061L822.899 351.437L820.24 354.008C818.006 356.168 816.827 356.628 812.862 356.881C805.597 357.346 802.395 355.194 799.197 347.697C798.662 346.442 797.12 349.072 797.04 351.374C796.981 353.1 796.73 352.879 795.423 349.944C793.422 345.451 791.612 345.445 786.751 349.914C782.869 353.484 777.295 363.843 773.215 375.071L771.284 380.382L770.803 375.888C770.539 373.416 770.262 371.595 770.189 371.84C770.116 372.086 768.559 376.682 766.731 382.055C761.914 396.205 757.992 412.09 757.461 419.604C757.437 419.945 757.413 420.27 757.391 420.579C757.218 422.992 757.115 424.427 757.295 424.463C757.559 424.516 758.433 421.558 760.589 414.261L761.183 412.25C763.453 404.573 770.635 388.451 771.432 389.245C771.631 389.444 771.374 393.415 770.86 398.069C769.073 414.242 770.172 428.521 773.835 436.695C774.942 439.166 774.956 439.135 774.503 435.13C773.841 429.283 775.324 418.277 777.86 410.207C779.061 406.387 780.306 402.982 780.628 402.64C780.949 402.298 780.889 404.872 780.492 408.36C779.582 416.37 780.096 437.898 781.246 439.931C781.935 441.149 782.232 440.099 782.694 434.811C783.022 431.059 783.608 428.363 784.038 428.628C784.457 428.887 784.805 430.271 784.812 431.705C784.837 436.81 786.213 436.848 787.292 431.773C788.361 426.752 792.029 413.345 792.45 412.925C792.583 412.793 792.529 417.784 792.33 424.018C791.785 441.043 794.439 458.188 799.503 470.349L801.17 474.353L800.561 471.084C799.546 465.632 799.896 443.848 801.017 442.729C801.782 441.967 802 442.296 802 444.21C802 449.236 811.183 478.024 812.788 478.028C813.09 478.029 813.607 476.835 813.937 475.374C814.476 472.99 814.719 473.513 816.311 480.481C818.326 489.299 823.472 506.727 823.926 506.274C824.091 506.109 823.757 501.433 823.182 495.883C822.608 490.333 822.132 477.335 822.126 466.999C822.113 450.108 822.297 447.542 823.922 441.667C826.765 431.395 831.779 422.283 838.388 415.379C841.541 412.085 844.462 409.39 844.881 409.39C845.299 409.39 846.131 408.747 846.731 407.96C848.131 406.122 847.286 408.724 842.283 421.647C836.664 436.16 830.834 454.503 828.939 463.63C826.901 473.449 827.161 483.524 829.838 498.458C832.525 513.444 833.922 528.827 833.994 544.218C834.057 557.763 834.124 558.345 835.261 555.249C835.921 553.452 836.974 549.039 837.6 545.444ZM905.288 428.865C911.62 426.696 915.697 423.102 917.09 418.464C917.619 416.704 917.482 416.559 915.742 417.038C910.574 418.458 896.468 420.11 888.25 420.257L879.075 420.422L881.63 422.465C884.669 424.895 891.269 428.682 893.429 429.236C896.411 429.999 902.537 429.808 905.288 428.865ZM930.901 403.585C931.409 401.051 930.082 393.15 928.944 391.935C928.582 391.548 927.288 392.734 926.069 394.571C924.139 397.481 923.927 398.405 924.428 401.738C924.744 403.842 925.352 406.478 925.778 407.596L926.552 409.628L928.484 407.818C929.546 406.822 930.634 404.917 930.901 403.585ZM815.715 352.842C817.577 351.301 816.795 350.653 813.262 350.81C810.25 350.944 809.747 350.725 809.527 349.182C809.362 348.027 809.886 347.071 811.013 346.469C812.407 345.725 812.56 345.307 811.782 344.371C810.318 342.612 807.114 342.938 806.031 344.957C804.709 347.421 806.403 352.846 808.803 353.834C810.78 354.648 814.112 354.17 815.715 352.842ZM755.499 343.568C751.305 340.637 744.565 338.287 736.882 337.077C727.14 335.543 724.83 334.855 720.5 332.201L717.224 330.193L722.753 330.687C725.83 330.962 728.277 330.857 728.272 330.451C728.265 330.049 724.751 327.909 720.461 325.696C711.316 320.979 705.134 316.981 700.626 312.867C696.061 308.702 695.715 307.934 698.904 309.043C700.869 309.727 703.749 309.692 710.39 308.904C728.853 306.714 737.185 310.517 750.253 327.101C756.529 335.066 765.141 344.228 765.141 342.941C765.141 341.791 759.969 328.901 758.689 326.86C750.83 314.327 739.768 306.107 727.785 303.893C723.974 303.189 719.915 303.306 708.514 304.446L694.07 305.89L696.538 311.676C699.961 319.7 703.467 324.855 709.164 330.237C717.642 338.249 725.321 341.131 741.459 342.359C747.107 342.79 752.626 343.499 753.724 343.937C756.753 345.144 757.525 344.983 755.499 343.568ZM780.74 334.067C782.689 331.295 783.809 329.32 783.228 329.678C782.609 330.06 782.754 329.443 783.58 328.186C784.354 327.007 785.344 326.042 785.781 326.042C786.217 326.042 786.41 325.583 786.209 325.021C786.008 324.459 787.176 323.174 788.803 322.165C791.09 320.747 791.39 320.323 790.123 320.297C788.697 320.268 788.803 320.003 790.942 318.254C792.294 317.149 794.045 316.243 794.833 316.241C797.101 316.234 796.5 314.853 794.014 314.359C791.521 313.864 781.855 314.816 781.031 315.638C780.744 315.924 781.174 316.82 781.988 317.628C783.414 319.044 783.399 319.107 781.587 319.37C780.553 319.52 777.413 319.244 774.609 318.757C766.44 317.337 766.218 317.426 769.27 320.894C772.099 324.108 775.275 330.441 774.788 331.897C774.628 332.378 773.492 331.258 772.264 329.407C771.037 327.557 769.484 326.042 768.815 326.042C768.146 326.042 767.598 326.241 767.598 326.484C767.598 327.212 770.906 333.569 773.19 337.23C775.67 341.205 775.742 341.175 780.74 334.067ZM885.003 309.904C886.59 307.769 889.283 304.403 890.986 302.424C894.856 297.928 893.92 298.24 885.23 304.343L878.314 309.2L880.088 311.447C881.063 312.684 881.919 313.715 881.989 313.74C882.06 313.765 883.416 312.039 885.003 309.904ZM801.414 294.119C806.745 291.977 807.497 289.857 803.077 289.428C798.635 288.998 793.021 292.521 788.443 298.614L786.028 301.828L791.352 298.925C794.28 297.328 798.808 295.165 801.414 294.119ZM789.075 291.622C791.904 290.192 795.993 288.395 798.162 287.629L802.106 286.235L799.533 283.667C797.473 281.612 796.523 281.205 794.77 281.623C789.115 282.974 784.461 287.355 779.701 295.808L777.169 300.303L780.55 297.262C782.41 295.59 786.246 293.052 789.075 291.622ZM778.928 288.134C783.074 284.685 791.586 280.3 794.219 280.258C795.685 280.234 795.615 280.019 793.559 278.214C787.158 272.597 776.89 278.72 772.05 291.041C769.437 297.693 769.533 298.324 772.58 294.491C773.968 292.744 776.825 289.883 778.928 288.134ZM851.259 290.061C849.031 288.209 844.856 287.997 842.701 289.627C841.384 290.624 841.688 290.752 845.454 290.781C847.783 290.799 849.893 291.018 850.144 291.268C850.394 291.518 851.183 291.71 851.896 291.696C852.873 291.675 852.716 291.272 851.259 290.061ZM768.285 280.689C771.625 277.423 777.128 274.207 783.98 271.516L786.028 270.712L783.161 268.963C779.579 266.779 778.331 266.776 773.708 268.944C767.569 271.823 762.997 278.971 761.448 288.113L760.905 291.314L762.686 287.868C763.665 285.973 766.185 282.742 768.285 280.689ZM845.624 282.734C848.215 282.734 850.665 283.226 851.603 283.934C853.779 285.576 854.345 285.477 853.838 283.542C853.084 280.667 848.888 277.831 845.388 277.831C842.812 277.831 841.667 278.393 839.308 280.817C835.769 284.452 835.584 285.649 838.818 283.981C840.148 283.295 843.21 282.734 845.624 282.734ZM759.689 270.568C762.322 268.766 766.912 266.482 769.889 265.494L775.302 263.697L772.611 261.456C768.93 258.389 765.725 257.886 761.568 259.72C756.841 261.806 753.151 266.311 751.583 271.911L751.46 272.352C750.197 276.861 749.674 278.728 750.005 278.893C750.239 279.01 750.899 278.279 752.024 277.033L752.18 276.86C753.677 275.202 757.056 272.371 759.689 270.568ZM742.636 265.901C746.362 260.504 750.906 256.476 756.286 253.802L760.241 251.836L756.473 250.016C745.268 244.605 734.676 249.474 730.035 262.169C727.73 268.478 727.82 268.907 730.634 265.031C732.956 261.834 737.003 258.303 741.797 255.292L744.254 253.749L741.674 256.737C738.848 260.01 737.381 265.095 736.768 273.746L736.391 279.057L737.954 274.738C738.814 272.362 740.92 268.386 742.636 265.901ZM837.63 274.133C841.623 271.68 846.449 271.503 850.027 273.679C852.462 275.161 852.574 275.165 852.205 273.758C851.683 271.764 847.9 268.353 845.597 267.799C842.392 267.028 838.244 268.74 835.619 271.917C831.68 276.685 832.323 277.394 837.63 274.133ZM728.039 253.445C731.536 249.967 734.35 248.075 738.722 246.261L744.657 243.798L741.09 242.021C736.329 239.649 730.999 239.68 727.398 242.101C721.947 245.766 719.989 250.641 718.958 263.123L718.519 268.434L720.905 263.3C722.4 260.083 725.064 256.402 728.039 253.445ZM706.945 256.227C708.817 251.427 715.123 243.706 719.586 240.751C722.043 239.123 724.498 237.792 725.04 237.792C727.23 237.792 723.94 235.39 719.931 234.062C711.971 231.424 703.813 234.503 700.461 241.409C697.955 246.574 698.398 247.478 701.866 244.273C703.555 242.711 706.005 240.522 707.31 239.408L709.683 237.383L707.467 241.213C704.851 245.736 703.026 257.457 704.119 262.714L704.799 265.983L705.404 262.306C705.737 260.283 706.43 257.548 706.945 256.227ZM845.661 260.876C848.002 261.096 850.535 261.536 851.29 261.855C852.371 262.311 852.573 262.087 852.237 260.806C851.026 256.186 844.152 253.748 838.721 256.012C836.271 257.033 830.668 263.332 830.668 265.066C830.668 265.298 833.084 264.361 836.036 262.982C840.515 260.892 842.11 260.543 845.661 260.876ZM690.379 257.721C690.682 247.538 694.981 239.686 703.133 234.43L708.037 231.268L705.08 230.036C698.289 227.205 692.809 229.458 689.678 236.368C688.037 239.99 687.744 241.915 687.782 248.823C687.818 255.355 689.092 263.955 690.021 263.937C690.116 263.935 690.277 261.138 690.379 257.721ZM677.229 259.546C676.041 250.9 680.745 236.955 686.64 231.641C688.37 230.083 689.784 228.659 689.784 228.477C689.784 227.842 684.607 226.352 682.401 226.352C676.229 226.352 672.929 234.058 673.653 246.78C674.04 253.575 676.184 263.123 677.324 263.123C677.542 263.123 677.499 261.513 677.229 259.546ZM650.471 260.272C650.045 259.154 649.459 255.926 649.169 253.101C648.274 244.393 652.499 232.186 658.007 227.563C659.266 226.505 660.297 225.463 660.297 225.247C660.297 225.03 658.419 224.451 656.125 223.96C650.736 222.807 648.303 223.915 645.639 228.732C642.157 235.029 643.412 248.361 648.414 258.208C650.61 262.532 651.78 263.705 650.471 260.272ZM664.822 253.522C664.845 243.264 666.505 237.989 671.824 231.277C673.593 229.044 675.041 227.066 675.041 226.881C675.041 226.404 668.086 224.718 666.119 224.718C663.676 224.718 660.396 229.599 659.474 234.608C658.502 239.885 659.983 250.343 662.732 257.607C663.71 260.191 664.576 262.306 664.656 262.306C664.736 262.306 664.811 258.353 664.822 253.522ZM832.119 252.139C836.537 249.253 841.766 248.14 846.218 249.138C848.228 249.588 849.969 249.86 850.087 249.743C850.205 249.625 849.048 248.316 847.516 246.834C845.106 244.505 844.166 244.14 840.566 244.14C835.611 244.14 833.079 245.592 830.256 250.053C827.2 254.882 827.465 255.18 832.119 252.139ZM619.701 246.981C618.597 238.68 622.279 227.727 628.208 221.672C631.349 218.464 631.479 218.158 630.025 217.382C627.527 216.048 623.473 216.41 620.966 218.191C617.215 220.856 615.745 225.958 616.294 234.412C616.714 240.88 618.865 250.866 619.838 250.866C620.047 250.866 619.985 249.118 619.701 246.981ZM633.747 233.697C635.051 230.796 637.41 227.461 639.545 225.498C641.525 223.677 642.934 221.848 642.676 221.432C642.419 221.016 640.741 220.282 638.948 219.801C630.524 217.538 625.98 225.502 628.36 238.359C629.695 245.576 630.216 246.323 630.948 242.07C631.278 240.154 632.537 236.386 633.747 233.697ZM828.659 241.48C834.135 238.191 837.49 237.382 842.706 238.096C846.407 238.602 846.421 238.594 845.219 236.788C843.551 234.282 837.53 231.255 834.213 231.255C830.404 231.255 826.104 235.367 824.604 240.447C823.973 242.582 823.56 244.329 823.687 244.329C823.813 244.329 826.051 243.047 828.659 241.48ZM611.223 227.845C612.619 225.087 615.577 221.065 617.796 218.908C621.595 215.217 621.735 214.935 620.185 214.108C615.3 211.499 609.812 213.843 607.36 219.584C606.171 222.369 605.812 235.781 606.829 239.426C607.303 241.122 607.509 240.738 608.042 237.165C608.396 234.798 609.827 230.604 611.223 227.845ZM828.211 227.544C829.897 226.662 832.83 226.036 835.333 226.023C840.369 225.998 840.011 224.786 834.325 222.62C827.636 220.072 821.968 222.68 819.688 229.356C817.815 234.839 817.988 235.041 821.863 231.882C823.778 230.321 826.634 228.369 828.211 227.544ZM451.367 227.055C450.832 226.058 450.578 223.248 450.776 220.517C450.967 217.884 450.905 215.729 450.639 215.729C450.373 215.729 449.299 216.327 448.253 217.058C445.891 218.709 446.322 222.015 449.429 226.079C451.792 229.17 452.764 229.659 451.367 227.055ZM596.828 220.179C598.275 217.907 600.984 214.747 602.848 213.155C604.712 211.563 606.237 210.056 606.237 209.806C606.237 209.556 605.048 208.938 603.595 208.433C601.373 207.66 600.623 207.752 598.885 209.008C595.741 211.28 593.331 217.029 592.811 223.492C592.424 228.311 592.497 228.826 593.274 226.76C593.781 225.412 595.381 222.45 596.828 220.179ZM439.142 223.463C439.142 219.193 439.05 218.989 437.504 219.815C436.603 220.296 435.866 221.246 435.866 221.927C435.866 223.264 438.116 227.986 438.754 227.986C438.967 227.986 439.142 225.951 439.142 223.463ZM822.887 221.071C824.689 220.309 827.36 219.678 828.823 219.669C832.184 219.647 831.679 218.775 827.51 217.402C821.073 215.283 815.477 218.425 813.808 225.095L813.202 227.515L816.406 224.986C818.169 223.594 821.085 221.833 822.887 221.071ZM584.412 223.062C585.327 218.502 591.107 211.469 597.228 207.47L599.237 206.157L596.635 204.815C595.203 204.076 593.351 203.472 592.519 203.472C590.42 203.472 585.076 209.139 584.155 212.343C582.912 216.669 582.128 226.667 583.079 226.081C583.536 225.799 584.136 224.441 584.412 223.062ZM429.313 223.035C429.313 222.11 429.036 221.501 428.699 221.683C428.361 221.865 427.416 222.252 426.599 222.543C424.767 223.195 425.554 224.718 427.723 224.718C428.782 224.718 429.313 224.156 429.313 223.035ZM461.972 223.366C461.263 222.513 460.87 220.102 460.908 216.829C460.94 213.977 460.664 211.643 460.293 211.643C459.923 211.643 458.902 212.359 458.026 213.233C456.745 214.511 456.572 215.313 457.148 217.316C458.012 220.318 461.033 224.718 462.233 224.718C462.733 224.718 462.624 224.149 461.972 223.366ZM574.256 219.948C575.636 214.837 581.233 206.977 585.347 204.375L589.051 202.031L586.258 200.709C582.501 198.931 581.392 199.033 578.548 201.42C575.003 204.396 573.662 207.91 573.01 215.933C572.392 223.541 572.87 225.084 574.256 219.948ZM470.677 214.503C470.677 210.233 470.483 206.74 470.245 206.74C468.602 206.741 466.172 209.597 466.172 211.529C466.172 213.245 469.848 222.268 470.546 222.266C470.618 222.265 470.677 218.772 470.677 214.503ZM806.148 215.159C807.171 212.504 810.582 210.628 814.29 210.679C816.09 210.703 817.563 210.435 817.563 210.082C817.563 208.773 811.226 206.631 808.111 206.887C803.652 207.253 802.378 209.671 803.215 216.175C803.246 216.412 803.274 216.638 803.302 216.854C803.557 218.861 803.693 219.928 803.969 219.965C804.283 220.008 804.777 218.722 805.833 215.977L805.839 215.962C805.937 215.707 806.04 215.44 806.148 215.159ZM811.934 219.277C813.651 217.206 819.231 214.958 822.887 214.863L826.163 214.779L823.452 213.597C821.961 212.947 819.134 212.196 817.169 211.927C814.068 211.503 813.319 211.717 811.485 213.547C810.139 214.89 809.372 216.558 809.372 218.143C809.372 220.92 810.248 221.308 811.934 219.277ZM566.127 209.706C568.07 205.843 575.152 198.599 577.043 198.54C577.557 198.524 577.057 197.986 575.93 197.343C573.467 195.938 569.879 195.792 567.609 197.005C564.071 198.894 561.087 210.578 562.464 217.149L563.108 220.223L563.617 216.955C563.896 215.157 565.026 211.895 566.127 209.706ZM479.447 214.49C479.241 212.01 479.538 208.322 480.107 206.295C481.368 201.804 480.774 201.006 477.831 203.234C475.973 204.64 475.618 205.495 475.743 208.253C475.876 211.152 478.621 218.998 479.504 218.998C479.679 218.998 479.653 216.969 479.447 214.49ZM487.931 211.848C487.947 209.05 488.682 205.248 489.749 202.451C491.534 197.77 491.535 197.752 489.877 197.752C487.586 197.752 484.192 201.337 484.192 203.757C484.192 205.511 487.236 216.546 487.72 216.546C487.822 216.546 487.917 214.432 487.931 211.848ZM799.166 213.482C800.886 209.374 804.137 206.123 807.196 205.453L809.704 204.903L806.689 203.36C805.03 202.511 801.545 201.596 798.946 201.326C793.198 200.73 791.425 202.129 791.217 207.42C791.033 212.106 791.752 212.397 793.769 208.454C794.867 206.306 796.039 205.106 797.039 205.106C798.486 205.106 798.513 205.276 797.41 207.481C796.379 209.544 796.516 216.546 797.589 216.546C797.75 216.546 798.46 215.167 799.166 213.482ZM546.407 203.543C547.411 201.579 549.884 198.211 551.9 196.06L555.567 192.149L551.743 191.577C548.357 191.071 547.688 191.236 545.895 193.024C543.448 195.465 542.393 199.609 542.367 206.878C542.341 214.116 543.363 216.732 544.061 211.218C544.347 208.961 545.402 205.507 546.407 203.543ZM554.723 207.117C556.438 203.566 558.505 201.095 562.722 197.555C564.189 196.324 565.185 194.987 564.935 194.584C564.189 193.379 558.87 192.716 557.183 193.618C554.553 195.021 552.365 200.908 551.85 207.966C551.481 213.015 551.572 214.038 552.25 212.46C552.733 211.337 553.846 208.932 554.723 207.117ZM499.604 199.182C501.367 194.493 501.367 194.483 499.706 194.483C498.791 194.483 497.088 195.435 495.923 196.598C493.99 198.526 493.846 199.122 494.29 203.339C494.558 205.884 495.246 209.253 495.818 210.826L496.859 213.686L497.348 208.783C497.617 206.087 498.632 201.766 499.604 199.182ZM524.628 211.244C523.788 209.062 526.047 202.009 529.317 196.6C531.078 193.688 532.519 191.1 532.519 190.851C532.519 190.602 531.053 190.398 529.261 190.398C524.316 190.398 523.077 192.828 523.18 202.326C523.256 209.341 523.719 212.46 524.686 212.46C524.911 212.46 524.885 211.913 524.628 211.244ZM509.458 197.631L512.023 192.441L509.932 192.177C508.781 192.032 506.942 192.5 505.845 193.217C504.137 194.334 503.85 195.159 503.85 198.956C503.85 201.396 504.293 205.34 504.834 207.722L505.818 212.052L506.355 207.437C506.654 204.876 508.035 200.511 509.458 197.631ZM535.685 202.501C536.584 200.411 538.634 197.247 540.243 195.471C541.851 193.696 543.167 191.827 543.167 191.32C543.167 190.774 541.687 190.398 539.537 190.398C536.504 190.398 535.647 190.768 534.332 192.645C532.009 195.96 531.52 198.99 532.195 205.876C532.736 211.386 532.869 211.742 533.427 209.177C533.771 207.596 534.787 204.592 535.685 202.501ZM517.025 202.167C517.916 199.426 519.542 195.97 520.64 194.486C522.792 191.576 522.672 190.398 520.222 190.398C517.446 190.398 514.63 192.193 513.63 194.602C512.68 196.891 513.034 204.341 514.323 209.192L514.866 211.235L515.136 209.192C515.285 208.068 516.135 204.907 517.025 202.167ZM796.624 199.751C798.223 199.451 800.178 199.432 800.97 199.707C801.762 199.982 801.324 199.379 799.996 198.367C798.669 197.355 796.744 196.342 795.719 196.118C794.355 195.819 794.049 195.399 794.578 194.553C795.058 193.785 796.585 193.444 799.114 193.54C803.482 193.705 803.418 192.847 798.875 190.372L795.857 188.726L799.747 188.955C801.887 189.081 803.638 188.914 803.638 188.584C803.638 187.459 799.559 185.314 798.32 185.788C797.641 186.048 797.085 185.944 797.085 185.557C797.085 184.342 799.548 183.842 802.899 184.377C805.669 184.819 806.053 184.702 805.611 183.552C805.327 182.815 804.217 181.992 803.144 181.724C800.268 181.004 801.737 179.566 804.963 179.941C808.136 180.311 808.75 178.788 806.095 177.134C803.699 175.641 804.095 174.634 806.914 175.047C809.857 175.477 809.946 175.208 807.529 173.179L805.686 171.632L807.529 171.114C810.031 170.41 809.848 168.645 807.119 167.168L804.867 165.949L807.119 165.916C809.826 165.877 810.127 164.496 807.529 164.039L805.686 163.716L809.72 162.042L807.962 161.103C806.994 160.586 805.534 160.156 804.716 160.146C803.446 160.13 803.515 159.908 805.189 158.623C806.284 157.784 806.896 156.709 806.574 156.19C805.817 154.968 802.59 155 801.345 156.242C800.026 157.557 800.097 160.114 801.467 160.638C802.075 160.871 802.605 162.231 802.646 163.66C802.687 165.09 803.126 166.394 803.623 166.56C804.27 166.775 804.258 167.182 803.581 167.996C803.061 168.62 802.848 169.684 803.108 170.359C803.761 172.057 798.659 181.78 794.524 186.721C787.711 194.859 784.686 201.021 787.502 201.021C788.088 201.021 789.072 200.561 789.69 199.999C790.308 199.437 790.013 200.039 789.035 201.335C788.057 202.632 787.256 204.423 787.256 205.315C787.256 206.647 787.836 206.342 790.488 203.616C792.564 201.482 794.758 200.1 796.624 199.751ZM801.221 154.809C802.878 153.05 802.996 152.604 801.978 151.962C798.494 149.764 794.626 152.093 796.746 155.112C798.341 157.385 798.827 157.352 801.221 154.809ZM796.266 151.147C798.27 149.556 798.28 149.494 796.724 148.305C795.85 147.637 794.467 147.09 793.652 147.09C792.838 147.09 792.171 146.766 792.171 146.372C792.171 145.494 787.378 143.427 786.764 144.04C785.811 144.99 788.486 147.887 789.902 147.439C790.973 147.099 791.212 147.318 790.838 148.292C790.381 149.479 792.54 152.836 793.731 152.791C793.999 152.781 795.14 152.041 796.266 151.147Z" fill="#1E1E1E"/>
<path d="M785.27 589C783.803 585.849 781.999 581.936 779.775 577.503C762.769 543.604 758.108 527.651 755.649 494.924C755.351 490.957 754.806 488.016 754.438 488.387C753.118 489.716 752.047 499.884 752.044 511.124C752.038 532.08 755.646 546.601 767.172 572.001C770.009 578.251 772.328 583.987 774.225 589H785.27Z" fill="#1E1E1E"/>
<path d="M753.657 589C751.882 584.055 749.558 577.373 745.985 567.506L738.369 546.669C733.299 534.385 727.972 517.066 725.757 505.665C724.864 501.074 723.911 497.114 723.637 496.866C722.724 496.038 724.158 520.069 725.49 527.907C727.067 537.187 731.159 550.202 736.208 561.994C738.532 567.42 742.334 578.38 745.851 589H753.657Z" fill="#1E1E1E"/>
<path d="M728.037 589C727.712 588.182 727.385 587.112 727.057 586.3C723.785 578.211 720.724 570.489 720.255 569.141C719.785 567.792 719.372 567.241 719.336 567.915C719.241 569.719 720.857 577.013 724.115 589H728.037Z" fill="#1E1E1E"/>
<path d="M714.521 589C712.393 584.612 710.703 581.094 710.599 581.197C710.495 581.301 711.117 584.819 712.029 589H714.521Z" fill="#1E1E1E"/>
<path d="M679.677 589C679.032 587.012 678.575 585.389 678.447 585.075C678.216 584.51 677.885 586.352 677.645 589H679.677Z" fill="#1E1E1E"/>
<path d="M674.609 589C672.535 581.49 671.659 574.649 671.516 565.99C671.41 559.568 671.036 556.096 670.429 555.894C668.387 555.216 666.61 573.084 667.723 583.103C667.889 584.598 668.242 586.769 668.746 589H674.609Z" fill="#1E1E1E"/>
<path d="M650.162 589C650.143 586.672 650.146 583.733 650.165 580.581C650.266 563.425 651.086 555.432 654.21 541.133C654.95 537.743 650.643 546.954 647.609 555.249C643.273 567.102 642.045 574.348 641.913 589H650.162Z" fill="#1E1E1E"/>
<path d="M638.39 589C638.274 586.605 638.252 583.988 638.343 581.792C638.647 574.425 638.53 573.124 637.673 574.345C636.465 576.065 634.83 582.334 633.613 589H638.39Z" fill="#1E1E1E"/>
<path d="M637.773 551.572C637.515 554.493 637.129 558.262 636.914 559.948C636.183 565.687 637.766 563.014 641.756 551.769C643.948 545.593 647.896 534.474 650.53 527.059C653.164 519.644 656.435 511.37 657.799 508.673L660.278 503.77L653.865 510.423C643.34 521.341 639.599 530.908 637.773 551.572Z" fill="#1E1E1E"/>
<path d="M712.159 518.47L712.159 518.472C712.337 520.477 712.459 521.863 712.682 523.234C713.181 526.309 714.183 529.303 717.43 539.011L717.431 539.013C718 540.714 718.638 542.622 719.355 544.773C722.676 554.741 725.453 562.831 725.526 562.75C725.895 562.339 723.143 543.203 721.273 533.187C719.463 523.49 719.07 518.616 718.698 501.203C718.255 480.481 718.985 468.748 721.262 459.991C722.878 453.777 721.235 456.326 718.403 464.426C712.871 480.249 710.403 499.787 711.915 515.782C712.011 516.798 712.09 517.682 712.159 518.47Z" fill="#1E1E1E"/>
<path d="M733.293 486.772C733.122 508.672 736.552 525.684 745.244 546.054C748.567 553.843 749.114 554.675 750.078 553.409C750.675 552.623 751.175 551.061 751.19 549.938C751.245 545.623 748.713 535.282 745.555 526.916C739.05 509.69 734.949 490.528 734.742 476.396C734.569 464.599 733.401 472.967 733.293 486.772Z" fill="#1E1E1E"/>
<path d="M701.49 500.109C701.062 508.037 702.282 526.087 703.504 529.918L704.025 531.552L704.364 529.918C704.551 529.019 705.062 527.844 705.498 527.307C706.014 526.673 705.942 522.942 705.294 516.684C704.352 507.589 704.662 484.625 705.811 478.438C706.138 476.677 706.042 476.332 705.472 477.213C704.036 479.429 701.962 491.354 701.49 500.109Z" fill="#1E1E1E"/>
<mask id="path-2-outside-1_13_77" maskUnits="userSpaceOnUse" x="294" y="443.42" width="761" height="148" fill="black">
<rect fill="white" x="294" y="443.42" width="761" height="148"/>
<path d="M357.34 574.21C355.187 567.37 352.97 560.087 350.69 552.36C348.537 544.633 346.383 536.97 344.23 529.37C342.077 521.77 340.113 514.677 338.34 508.09C336.567 501.503 335.047 495.803 333.78 490.99C332.513 486.177 331.627 482.757 331.12 480.73L330.36 480.92C330.74 483.2 331.057 486.24 331.31 490.04C331.563 493.713 331.753 497.64 331.88 501.82C332.007 505.873 332.07 509.61 332.07 513.03V580.29H303V460.02H353.92C355.693 466.733 357.53 473.827 359.43 481.3C361.457 488.647 363.42 495.993 365.32 503.34C367.347 510.56 369.12 517.463 370.64 524.05C372.16 530.51 373.237 536.147 373.87 540.96H374.25C374.883 536.147 375.897 530.51 377.29 524.05C378.81 517.59 380.52 510.687 382.42 503.34C384.32 495.993 386.283 488.647 388.31 481.3C390.337 473.827 392.173 466.733 393.82 460.02H443.98V580.29H415.29V513.03C415.29 509.61 415.353 505.873 415.48 501.82C415.607 497.64 415.797 493.713 416.05 490.04C416.43 486.24 416.747 483.2 417 480.92L416.24 480.73C415.733 482.757 414.847 486.177 413.58 490.99C412.313 495.803 410.73 501.567 408.83 508.28C407.057 514.867 405.093 521.96 402.94 529.56C400.787 537.16 398.57 544.823 396.29 552.55C394.137 560.15 392.047 567.37 390.02 574.21H357.34Z"/>
<path d="M501.531 486.81C513.691 486.81 523.508 488.077 530.981 490.61C538.455 493.143 543.901 497.83 547.321 504.67C550.868 511.383 552.641 521.137 552.641 533.93V580.29H525.091L524.141 571.55H523.571C521.165 574.717 517.428 577.25 512.361 579.15C507.295 581.05 500.708 582 492.601 582C470.688 582 459.731 571.74 459.731 551.22C459.731 542.48 462.581 535.64 468.281 530.7C474.108 525.633 483.228 523.1 495.641 523.1H523.761C522.875 517.78 520.595 514.233 516.921 512.46C513.248 510.56 506.978 509.61 498.111 509.61C492.538 509.61 487.028 510.053 481.581 510.94C476.261 511.7 471.575 512.587 467.521 513.6L466.951 513.22L467.141 491.18C469.675 490.42 472.905 489.723 476.831 489.09C480.758 488.33 484.875 487.76 489.181 487.38C493.615 487 497.731 486.81 501.531 486.81ZM500.391 559.58C508.245 559.58 514.135 558.63 518.061 556.73C521.988 554.703 524.015 551.537 524.141 547.23V542.48H502.671C497.098 542.48 493.171 543.303 490.891 544.95C488.738 546.47 487.661 548.56 487.661 551.22C487.661 554.387 488.801 556.603 491.081 557.87C493.361 559.01 496.465 559.58 500.391 559.58Z"/>
<path d="M598.914 580.29H568.514V487.76H593.214L595.684 506.76H596.254C597.394 499.667 600.117 494.6 604.424 491.56C608.731 488.393 615.127 486.81 623.614 486.81C627.034 486.81 630.137 487 632.924 487.38C635.711 487.633 638.054 487.887 639.954 488.14V517.78L639.574 518.16C637.547 517.653 635.204 517.21 632.544 516.83C630.011 516.45 627.097 516.26 623.804 516.26C619.117 516.26 614.874 517.02 611.074 518.54C607.401 520.06 604.487 523.037 602.334 527.47C600.307 531.777 599.294 538.237 599.294 546.85L598.914 580.29Z"/>
<path d="M685.709 580.29H655.309V452.42H685.709V526.9H686.089L710.029 487.76H743.469V488.52L715.349 532.22V532.98L748.029 580.29H713.069L686.279 537.54L685.709 537.35V580.29Z"/>
<path d="M787.76 580.29H757.36V452.61H787.76V504.67H788.33C790.103 498.97 793.333 494.6 798.02 491.56C802.833 488.393 809.103 486.81 816.83 486.81C824.176 486.81 830.193 488.013 834.88 490.42C839.693 492.827 843.24 497.07 845.52 503.15C847.926 509.103 849.13 517.527 849.13 528.42V580.29H818.73L818.54 534.31C818.54 527.217 817.463 522.15 815.31 519.11C813.156 516.07 809.103 514.55 803.15 514.55C797.83 514.55 793.966 515.943 791.56 518.73C789.153 521.517 787.886 526.203 787.76 532.79V580.29Z"/>
<path d="M865.151 534.69C865.151 517.717 868.761 505.493 875.981 498.02C883.201 490.547 895.424 486.81 912.651 486.81C924.178 486.81 933.424 488.457 940.391 491.75C947.358 495.043 952.361 500.237 955.401 507.33C958.568 514.297 960.151 523.417 960.151 534.69C960.151 545.837 958.568 554.893 955.401 561.86C952.361 568.827 947.358 573.957 940.391 577.25C933.424 580.417 924.178 582 912.651 582C895.424 582 883.201 578.327 875.981 570.98C868.761 563.507 865.151 551.41 865.151 534.69ZM912.651 555.97C919.998 555.97 924.938 554.387 927.471 551.22C930.131 547.927 931.461 542.227 931.461 534.12C931.461 526.393 930.131 520.883 927.471 517.59C924.938 514.17 919.998 512.46 912.651 512.46C905.558 512.46 900.618 514.17 897.831 517.59C895.171 520.883 893.841 526.393 893.841 534.12C893.841 542.227 895.171 547.927 897.831 551.22C900.618 554.387 905.558 555.97 912.651 555.97Z"/>
<path d="M1004.66 580.29H974.264V487.76H998.964L1001.43 506.76H1002C1003.14 499.667 1005.87 494.6 1010.17 491.56C1014.48 488.393 1020.88 486.81 1029.36 486.81C1032.78 486.81 1035.89 487 1038.67 487.38C1041.46 487.633 1043.8 487.887 1045.7 488.14V517.78L1045.32 518.16C1043.3 517.653 1040.95 517.21 1038.29 516.83C1035.76 516.45 1032.85 516.26 1029.55 516.26C1024.87 516.26 1020.62 517.02 1016.82 518.54C1013.15 520.06 1010.24 523.037 1008.08 527.47C1006.06 531.777 1005.04 538.237 1005.04 546.85L1004.66 580.29Z"/>
</mask>
<path d="M357.34 574.21C355.187 567.37 352.97 560.087 350.69 552.36C348.537 544.633 346.383 536.97 344.23 529.37C342.077 521.77 340.113 514.677 338.34 508.09C336.567 501.503 335.047 495.803 333.78 490.99C332.513 486.177 331.627 482.757 331.12 480.73L330.36 480.92C330.74 483.2 331.057 486.24 331.31 490.04C331.563 493.713 331.753 497.64 331.88 501.82C332.007 505.873 332.07 509.61 332.07 513.03V580.29H303V460.02H353.92C355.693 466.733 357.53 473.827 359.43 481.3C361.457 488.647 363.42 495.993 365.32 503.34C367.347 510.56 369.12 517.463 370.64 524.05C372.16 530.51 373.237 536.147 373.87 540.96H374.25C374.883 536.147 375.897 530.51 377.29 524.05C378.81 517.59 380.52 510.687 382.42 503.34C384.32 495.993 386.283 488.647 388.31 481.3C390.337 473.827 392.173 466.733 393.82 460.02H443.98V580.29H415.29V513.03C415.29 509.61 415.353 505.873 415.48 501.82C415.607 497.64 415.797 493.713 416.05 490.04C416.43 486.24 416.747 483.2 417 480.92L416.24 480.73C415.733 482.757 414.847 486.177 413.58 490.99C412.313 495.803 410.73 501.567 408.83 508.28C407.057 514.867 405.093 521.96 402.94 529.56C400.787 537.16 398.57 544.823 396.29 552.55C394.137 560.15 392.047 567.37 390.02 574.21H357.34Z" fill="#EFBF43"/>
<path d="M501.531 486.81C513.691 486.81 523.508 488.077 530.981 490.61C538.455 493.143 543.901 497.83 547.321 504.67C550.868 511.383 552.641 521.137 552.641 533.93V580.29H525.091L524.141 571.55H523.571C521.165 574.717 517.428 577.25 512.361 579.15C507.295 581.05 500.708 582 492.601 582C470.688 582 459.731 571.74 459.731 551.22C459.731 542.48 462.581 535.64 468.281 530.7C474.108 525.633 483.228 523.1 495.641 523.1H523.761C522.875 517.78 520.595 514.233 516.921 512.46C513.248 510.56 506.978 509.61 498.111 509.61C492.538 509.61 487.028 510.053 481.581 510.94C476.261 511.7 471.575 512.587 467.521 513.6L466.951 513.22L467.141 491.18C469.675 490.42 472.905 489.723 476.831 489.09C480.758 488.33 484.875 487.76 489.181 487.38C493.615 487 497.731 486.81 501.531 486.81ZM500.391 559.58C508.245 559.58 514.135 558.63 518.061 556.73C521.988 554.703 524.015 551.537 524.141 547.23V542.48H502.671C497.098 542.48 493.171 543.303 490.891 544.95C488.738 546.47 487.661 548.56 487.661 551.22C487.661 554.387 488.801 556.603 491.081 557.87C493.361 559.01 496.465 559.58 500.391 559.58Z" fill="#EFBF43"/>
<path d="M598.914 580.29H568.514V487.76H593.214L595.684 506.76H596.254C597.394 499.667 600.117 494.6 604.424 491.56C608.731 488.393 615.127 486.81 623.614 486.81C627.034 486.81 630.137 487 632.924 487.38C635.711 487.633 638.054 487.887 639.954 488.14V517.78L639.574 518.16C637.547 517.653 635.204 517.21 632.544 516.83C630.011 516.45 627.097 516.26 623.804 516.26C619.117 516.26 614.874 517.02 611.074 518.54C607.401 520.06 604.487 523.037 602.334 527.47C600.307 531.777 599.294 538.237 599.294 546.85L598.914 580.29Z" fill="#EFBF43"/>
<path d="M685.709 580.29H655.309V452.42H685.709V526.9H686.089L710.029 487.76H743.469V488.52L715.349 532.22V532.98L748.029 580.29H713.069L686.279 537.54L685.709 537.35V580.29Z" fill="#EFBF43"/>
<path d="M787.76 580.29H757.36V452.61H787.76V504.67H788.33C790.103 498.97 793.333 494.6 798.02 491.56C802.833 488.393 809.103 486.81 816.83 486.81C824.176 486.81 830.193 488.013 834.88 490.42C839.693 492.827 843.24 497.07 845.52 503.15C847.926 509.103 849.13 517.527 849.13 528.42V580.29H818.73L818.54 534.31C818.54 527.217 817.463 522.15 815.31 519.11C813.156 516.07 809.103 514.55 803.15 514.55C797.83 514.55 793.966 515.943 791.56 518.73C789.153 521.517 787.886 526.203 787.76 532.79V580.29Z" fill="#EFBF43"/>
<path d="M865.151 534.69C865.151 517.717 868.761 505.493 875.981 498.02C883.201 490.547 895.424 486.81 912.651 486.81C924.178 486.81 933.424 488.457 940.391 491.75C947.358 495.043 952.361 500.237 955.401 507.33C958.568 514.297 960.151 523.417 960.151 534.69C960.151 545.837 958.568 554.893 955.401 561.86C952.361 568.827 947.358 573.957 940.391 577.25C933.424 580.417 924.178 582 912.651 582C895.424 582 883.201 578.327 875.981 570.98C868.761 563.507 865.151 551.41 865.151 534.69ZM912.651 555.97C919.998 555.97 924.938 554.387 927.471 551.22C930.131 547.927 931.461 542.227 931.461 534.12C931.461 526.393 930.131 520.883 927.471 517.59C924.938 514.17 919.998 512.46 912.651 512.46C905.558 512.46 900.618 514.17 897.831 517.59C895.171 520.883 893.841 526.393 893.841 534.12C893.841 542.227 895.171 547.927 897.831 551.22C900.618 554.387 905.558 555.97 912.651 555.97Z" fill="#EFBF43"/>
<path d="M1004.66 580.29H974.264V487.76H998.964L1001.43 506.76H1002C1003.14 499.667 1005.87 494.6 1010.17 491.56C1014.48 488.393 1020.88 486.81 1029.36 486.81C1032.78 486.81 1035.89 487 1038.67 487.38C1041.46 487.633 1043.8 487.887 1045.7 488.14V517.78L1045.32 518.16C1043.3 517.653 1040.95 517.21 1038.29 516.83C1035.76 516.45 1032.85 516.26 1029.55 516.26C1024.87 516.26 1020.62 517.02 1016.82 518.54C1013.15 520.06 1010.24 523.037 1008.08 527.47C1006.06 531.777 1005.04 538.237 1005.04 546.85L1004.66 580.29Z" fill="#EFBF43"/>
<path d="M357.34 574.21C355.187 567.37 352.97 560.087 350.69 552.36C348.537 544.633 346.383 536.97 344.23 529.37C342.077 521.77 340.113 514.677 338.34 508.09C336.567 501.503 335.047 495.803 333.78 490.99C332.513 486.177 331.627 482.757 331.12 480.73L330.36 480.92C330.74 483.2 331.057 486.24 331.31 490.04C331.563 493.713 331.753 497.64 331.88 501.82C332.007 505.873 332.07 509.61 332.07 513.03V580.29H303V460.02H353.92C355.693 466.733 357.53 473.827 359.43 481.3C361.457 488.647 363.42 495.993 365.32 503.34C367.347 510.56 369.12 517.463 370.64 524.05C372.16 530.51 373.237 536.147 373.87 540.96H374.25C374.883 536.147 375.897 530.51 377.29 524.05C378.81 517.59 380.52 510.687 382.42 503.34C384.32 495.993 386.283 488.647 388.31 481.3C390.337 473.827 392.173 466.733 393.82 460.02H443.98V580.29H415.29V513.03C415.29 509.61 415.353 505.873 415.48 501.82C415.607 497.64 415.797 493.713 416.05 490.04C416.43 486.24 416.747 483.2 417 480.92L416.24 480.73C415.733 482.757 414.847 486.177 413.58 490.99C412.313 495.803 410.73 501.567 408.83 508.28C407.057 514.867 405.093 521.96 402.94 529.56C400.787 537.16 398.57 544.823 396.29 552.55C394.137 560.15 392.047 567.37 390.02 574.21H357.34Z" stroke="#1E1E1E" stroke-width="18" mask="url(#path-2-outside-1_13_77)"/>
<path d="M501.531 486.81C513.691 486.81 523.508 488.077 530.981 490.61C538.455 493.143 543.901 497.83 547.321 504.67C550.868 511.383 552.641 521.137 552.641 533.93V580.29H525.091L524.141 571.55H523.571C521.165 574.717 517.428 577.25 512.361 579.15C507.295 581.05 500.708 582 492.601 582C470.688 582 459.731 571.74 459.731 551.22C459.731 542.48 462.581 535.64 468.281 530.7C474.108 525.633 483.228 523.1 495.641 523.1H523.761C522.875 517.78 520.595 514.233 516.921 512.46C513.248 510.56 506.978 509.61 498.111 509.61C492.538 509.61 487.028 510.053 481.581 510.94C476.261 511.7 471.575 512.587 467.521 513.6L466.951 513.22L467.141 491.18C469.675 490.42 472.905 489.723 476.831 489.09C480.758 488.33 484.875 487.76 489.181 487.38C493.615 487 497.731 486.81 501.531 486.81ZM500.391 559.58C508.245 559.58 514.135 558.63 518.061 556.73C521.988 554.703 524.015 551.537 524.141 547.23V542.48H502.671C497.098 542.48 493.171 543.303 490.891 544.95C488.738 546.47 487.661 548.56 487.661 551.22C487.661 554.387 488.801 556.603 491.081 557.87C493.361 559.01 496.465 559.58 500.391 559.58Z" stroke="#1E1E1E" stroke-width="18" mask="url(#path-2-outside-1_13_77)"/>
<path d="M598.914 580.29H568.514V487.76H593.214L595.684 506.76H596.254C597.394 499.667 600.117 494.6 604.424 491.56C608.731 488.393 615.127 486.81 623.614 486.81C627.034 486.81 630.137 487 632.924 487.38C635.711 487.633 638.054 487.887 639.954 488.14V517.78L639.574 518.16C637.547 517.653 635.204 517.21 632.544 516.83C630.011 516.45 627.097 516.26 623.804 516.26C619.117 516.26 614.874 517.02 611.074 518.54C607.401 520.06 604.487 523.037 602.334 527.47C600.307 531.777 599.294 538.237 599.294 546.85L598.914 580.29Z" stroke="#1E1E1E" stroke-width="18" mask="url(#path-2-outside-1_13_77)"/>
<path d="M685.709 580.29H655.309V452.42H685.709V526.9H686.089L710.029 487.76H743.469V488.52L715.349 532.22V532.98L748.029 580.29H713.069L686.279 537.54L685.709 537.35V580.29Z" stroke="#1E1E1E" stroke-width="18" mask="url(#path-2-outside-1_13_77)"/>
<path d="M787.76 580.29H757.36V452.61H787.76V504.67H788.33C790.103 498.97 793.333 494.6 798.02 491.56C802.833 488.393 809.103 486.81 816.83 486.81C824.176 486.81 830.193 488.013 834.88 490.42C839.693 492.827 843.24 497.07 845.52 503.15C847.926 509.103 849.13 517.527 849.13 528.42V580.29H818.73L818.54 534.31C818.54 527.217 817.463 522.15 815.31 519.11C813.156 516.07 809.103 514.55 803.15 514.55C797.83 514.55 793.966 515.943 791.56 518.73C789.153 521.517 787.886 526.203 787.76 532.79V580.29Z" stroke="#1E1E1E" stroke-width="18" mask="url(#path-2-outside-1_13_77)"/>
<path d="M865.151 534.69C865.151 517.717 868.761 505.493 875.981 498.02C883.201 490.547 895.424 486.81 912.651 486.81C924.178 486.81 933.424 488.457 940.391 491.75C947.358 495.043 952.361 500.237 955.401 507.33C958.568 514.297 960.151 523.417 960.151 534.69C960.151 545.837 958.568 554.893 955.401 561.86C952.361 568.827 947.358 573.957 940.391 577.25C933.424 580.417 924.178 582 912.651 582C895.424 582 883.201 578.327 875.981 570.98C868.761 563.507 865.151 551.41 865.151 534.69ZM912.651 555.97C919.998 555.97 924.938 554.387 927.471 551.22C930.131 547.927 931.461 542.227 931.461 534.12C931.461 526.393 930.131 520.883 927.471 517.59C924.938 514.17 919.998 512.46 912.651 512.46C905.558 512.46 900.618 514.17 897.831 517.59C895.171 520.883 893.841 526.393 893.841 534.12C893.841 542.227 895.171 547.927 897.831 551.22C900.618 554.387 905.558 555.97 912.651 555.97Z" stroke="#1E1E1E" stroke-width="18" mask="url(#path-2-outside-1_13_77)"/>
<path d="M1004.66 580.29H974.264V487.76H998.964L1001.43 506.76H1002C1003.14 499.667 1005.87 494.6 1010.17 491.56C1014.48 488.393 1020.88 486.81 1029.36 486.81C1032.78 486.81 1035.89 487 1038.67 487.38C1041.46 487.633 1043.8 487.887 1045.7 488.14V517.78L1045.32 518.16C1043.3 517.653 1040.95 517.21 1038.29 516.83C1035.76 516.45 1032.85 516.26 1029.55 516.26C1024.87 516.26 1020.62 517.02 1016.82 518.54C1013.15 520.06 1010.24 523.037 1008.08 527.47C1006.06 531.777 1005.04 538.237 1005.04 546.85L1004.66 580.29Z" stroke="#1E1E1E" stroke-width="18" mask="url(#path-2-outside-1_13_77)"/>
</svg>
