<svg width="1349" height="678" viewBox="0 0 1349 678" fill="none" xmlns="http://www.w3.org/2000/svg">
<path d="M801.934 148.303C803.956 146.695 803.966 146.632 802.396 145.43C801.513 144.754 800.118 144.201 799.295 144.201C798.472 144.201 797.799 143.874 797.799 143.475C797.799 142.588 792.961 140.498 792.341 141.118C791.379 142.079 794.079 145.007 795.509 144.554C796.59 144.211 796.832 144.432 796.454 145.417C795.993 146.617 798.172 150.011 799.374 149.966C799.645 149.956 800.797 149.208 801.934 148.303Z" fill="white"/>
<path d="M807.7 149.127C808.727 149.777 808.608 150.228 806.936 152.006C804.518 154.577 804.028 154.611 802.417 152.313C800.277 149.26 804.183 146.905 807.7 149.127Z" fill="white"/>
<path d="M802.295 197.445C803.909 197.142 805.882 197.123 806.682 197.401C807.481 197.679 807.039 197.069 805.699 196.046C804.359 195.022 802.416 193.999 801.381 193.772C800.004 193.47 799.695 193.045 800.229 192.189C800.714 191.413 802.256 191.069 804.808 191.165C809.218 191.332 809.153 190.465 804.567 187.962L801.52 186.299L805.448 186.53C807.608 186.657 809.375 186.488 809.375 186.155C809.375 185.017 805.257 182.848 804.007 183.328C803.321 183.591 802.76 183.485 802.76 183.094C802.76 181.866 805.246 181.36 808.63 181.901C811.425 182.348 811.813 182.229 811.367 181.067C811.08 180.322 809.96 179.49 808.876 179.218C805.973 178.49 807.456 177.036 810.713 177.416C813.916 177.79 814.536 176.25 811.856 174.578C809.437 173.069 809.836 172.05 812.682 172.467C815.653 172.903 815.743 172.63 813.303 170.579L811.442 169.015L813.303 168.491C815.829 167.78 815.644 165.995 812.889 164.502L810.615 163.269L812.889 163.236C815.621 163.197 815.926 161.8 813.303 161.339L811.442 161.011L815.515 159.319L813.74 158.369C812.763 157.847 811.289 157.412 810.463 157.402C809.181 157.386 809.251 157.161 810.941 155.863C812.046 155.014 812.664 153.927 812.339 153.402C811.575 152.167 808.317 152.199 807.06 153.454C805.729 154.785 805.8 157.369 807.183 157.9C807.797 158.135 808.333 159.51 808.374 160.955C808.415 162.401 808.859 163.72 809.36 163.887C810.013 164.104 810.001 164.515 809.317 165.338C808.793 165.97 808.578 167.045 808.84 167.728C809.499 169.444 804.349 179.275 800.174 184.271C793.298 192.499 790.244 198.729 793.086 198.729C793.678 198.729 794.671 198.264 795.295 197.696C795.919 197.128 795.621 197.736 794.633 199.047C793.646 200.358 792.838 202.168 792.838 203.071C792.838 204.417 793.423 204.109 796.1 201.353C798.196 199.195 800.411 197.798 802.295 197.445Z" fill="white"/>
<path d="M523.697 192.122C522.589 193.622 520.947 197.117 520.048 199.888C519.15 202.658 518.291 205.855 518.141 206.991L517.868 209.056L517.32 206.991C516.019 202.086 515.662 194.553 516.621 192.239C517.631 189.804 520.473 187.988 523.276 187.988C525.748 187.988 525.87 189.18 523.697 192.122Z" fill="white"/>
<path d="M512.409 195.302L514.999 190.054L512.887 189.787C511.726 189.641 509.87 190.114 508.762 190.839C507.038 191.968 506.749 192.802 506.749 196.642C506.749 199.108 507.195 203.096 507.742 205.504L508.735 209.882L509.277 205.216C509.578 202.627 510.972 198.214 512.409 195.302Z" fill="white"/>
<path d="M502.565 192.119C504.241 192.119 504.241 192.129 502.462 196.87C501.481 199.483 500.456 203.851 500.185 206.577L499.691 211.534L498.64 208.643C498.062 207.052 497.368 203.646 497.098 201.073C496.649 196.809 496.795 196.206 498.746 194.257C499.923 193.081 501.641 192.119 502.565 192.119Z" fill="white"/>
<path d="M490.679 209.676C490.694 206.847 491.437 203.003 492.514 200.175C494.316 195.442 494.316 195.424 492.643 195.424C490.33 195.424 486.904 199.049 486.904 201.496C486.904 203.269 489.977 214.426 490.465 214.426C490.568 214.426 490.664 212.288 490.679 209.676Z" fill="white"/>
<path d="M482.78 204.061C482.206 206.111 481.906 209.84 482.114 212.347C482.322 214.854 482.348 216.905 482.171 216.905C481.281 216.905 478.509 208.973 478.376 206.041C478.248 203.252 478.607 202.388 480.483 200.966C483.454 198.714 484.053 199.521 482.78 204.061Z" fill="white"/>
<path d="M473.261 212.36C473.261 208.044 473.065 204.512 472.825 204.512C471.166 204.512 468.714 207.4 468.714 209.354C468.714 211.088 472.424 220.212 473.128 220.209C473.201 220.208 473.261 216.677 473.261 212.36Z" fill="white"/>
<path d="M463.399 214.712C463.361 218.021 463.757 220.459 464.474 221.321C465.131 222.113 465.242 222.688 464.737 222.688C463.526 222.688 460.476 218.24 459.604 215.204C459.023 213.179 459.197 212.369 460.49 211.077C461.375 210.193 462.405 209.469 462.779 209.469C463.153 209.469 463.432 211.828 463.399 214.712Z" fill="white"/>
<path d="M453.768 225.051C453.228 224.043 452.972 221.202 453.172 218.441C453.365 215.779 453.302 213.6 453.033 213.6C452.764 213.6 451.68 214.205 450.624 214.944C448.24 216.612 448.675 219.956 451.812 224.065C454.197 227.189 455.179 227.684 453.768 225.051Z" fill="white"/>
<path d="M439.774 217.731C441.335 216.896 441.427 217.102 441.427 221.42C441.427 223.935 441.251 225.993 441.035 225.993C440.392 225.993 438.12 221.218 438.12 219.866C438.12 219.178 438.864 218.217 439.774 217.731Z" fill="white"/>
<path d="M431.505 220.987C431.505 220.051 431.226 219.436 430.885 219.62C430.544 219.804 429.59 220.195 428.766 220.489C426.917 221.149 427.711 222.688 429.9 222.688C430.969 222.688 431.505 222.12 431.505 220.987Z" fill="white"/>
<path d="M741.987 336.291C749.742 337.514 756.546 339.89 760.78 342.853C762.825 344.284 762.046 344.447 758.989 343.226C757.88 342.784 752.309 342.066 746.608 341.631C730.316 340.389 722.565 337.475 714.006 329.375C708.256 323.933 704.716 318.721 701.261 310.609L698.77 304.758L713.35 303.298C724.859 302.145 728.957 302.028 732.804 302.739C744.901 304.977 756.067 313.289 764 325.96C765.293 328.024 770.513 341.057 770.513 342.219C770.513 343.521 761.82 334.257 755.484 326.204C742.293 309.437 733.882 305.591 715.244 307.806C708.541 308.602 705.633 308.637 703.649 307.946C700.43 306.825 700.779 307.602 705.387 311.813C709.938 315.972 716.179 320.014 725.41 324.783C729.741 327.021 733.289 329.184 733.295 329.591C733.301 330.002 730.83 330.108 727.724 329.83L722.143 329.33L725.45 331.36C729.821 334.044 732.153 334.739 741.987 336.291Z" fill="white"/>
<path d="M746.447 591L715.349 545.98V545.22L721.007 536.427C718.777 529.72 717.985 527.143 717.558 524.506C717.333 523.121 717.209 521.719 717.03 519.692L717.03 519.69C716.96 518.893 716.881 517.999 716.784 516.972C716.3 511.849 716.22 506.368 716.513 500.76H710.029L709.539 501.561C709.531 507.937 709.708 514.099 710.1 517.884C710.754 524.211 710.826 527.984 710.306 528.624C709.865 529.168 709.35 530.356 709.161 531.264L708.819 532.917L708.292 531.264C707.308 528.174 706.326 515.934 706.188 507.04L692.779 528.962C692.269 539.924 692.332 553.235 693.139 559.354L693.496 562.057L694.074 562.979L694.95 551.919C696.031 538.265 696.826 532.909 699.237 523.003L700.644 517.219L701.161 531.004C701.446 538.586 701.914 545.725 702.201 546.869C702.488 548.013 702.913 552.405 703.144 556.63C703.588 564.755 704.678 573.489 706.44 582.711L711.634 591H746.447Z" fill="white"/>
<path d="M685.709 552.472C685.014 547.156 684.527 537.724 684.495 528.786L684.439 513.089L678.791 526.307L678.788 518.872C678.786 514.782 679.143 508.677 679.581 505.304C680.019 501.931 680.232 499.027 680.055 498.85C679.877 498.672 678.764 501.246 677.581 504.569L675.431 510.61L675.916 505.742C676.455 500.333 679.971 485.387 683.776 472.328C684.55 469.674 685.204 467.175 685.6 465.42H682.495C681.598 466.214 680.584 467.158 679.522 468.198C675.044 472.58 672.205 476.318 669.27 481.694C666.127 487.45 660.373 496.99 655.309 505.001V514.706C656.207 513.66 657.164 512.613 658.184 511.554L664.657 504.827L662.155 509.785C660.862 512.346 657.871 519.88 655.309 526.998V548.257C657.365 543.505 659.016 540.385 658.532 542.603C656.923 549.979 655.919 555.696 655.309 561.83V591H673.206C672.697 588.744 672.341 586.55 672.173 585.038C671.049 574.908 672.843 556.843 674.904 557.528C675.517 557.732 675.895 561.243 676.002 567.736C676.147 576.491 677.03 583.407 679.125 591H685.709V552.472Z" fill="white"/>
<path d="M646.309 583.674V552.373C646.188 552.713 646.072 553.042 645.96 553.357C641.932 564.727 640.335 567.429 641.072 561.626C641.289 559.922 641.679 556.112 641.94 553.158C642.386 548.098 642.946 543.696 643.689 539.773L642.335 541.127L637.391 539.891C635.735 539.477 633.707 539.088 631.271 538.74L631.24 538.735L631.209 538.73C629.221 538.432 626.77 538.26 623.804 538.26C622.668 538.26 621.59 538.316 620.566 538.424C619.757 538.935 618.923 539.458 618.063 539.994C615.172 541.799 612.609 543.382 610.258 544.801C609.18 547.422 608.294 552.173 608.294 559.85V559.901L607.98 587.557L637.74 591C638.968 584.26 640.619 577.922 641.839 576.183C642.704 574.948 642.822 576.264 642.515 583.712C642.423 585.933 642.445 588.579 642.563 591H646.118C646.142 588.34 646.202 585.921 646.309 583.674Z" fill="white"/>
<path d="M694.709 481.03C697.212 476.014 699.913 470.783 702.091 466.823C704.091 463.188 707.333 457.239 709.296 453.604L712.865 446.994L708.112 451.538C705.497 454.038 701.538 458.239 699.314 460.876C697.09 463.512 695.276 465.185 695.284 464.594C695.335 460.671 707.238 437.645 717.302 422.003C718.837 419.617 719.98 417.665 719.843 417.665C719.705 417.665 716.458 420.063 712.626 422.993C708.794 425.923 705.508 428.171 705.325 427.988C704.758 427.421 710.117 418.46 715.945 410.23C719.002 405.913 723.23 399.779 725.342 396.598C727.454 393.417 729.83 389.899 730.623 388.781C731.995 386.845 731.885 386.868 728.344 389.247C722.194 393.38 716.768 396.303 716.768 395.484C716.768 395.061 721.275 388.659 726.783 381.257C740.039 363.445 746.967 356.16 751.479 355.292C754.03 354.801 753.535 355.973 748.792 361.645C744.55 366.718 741.31 371.351 739.097 375.509C738.393 376.832 739.879 375.857 743.305 372.746C749.119 367.469 755.647 363.705 757.652 364.474C760.083 365.406 758.949 369.796 753.24 381.556C741.355 406.042 736.404 421.701 734.692 440.219C734.491 442.4 734.482 444.028 734.674 443.837C734.865 443.646 735.92 440.133 737.019 436.031C739.631 426.279 746.966 409.427 751.312 403.191C758.655 392.656 759.146 392.792 753.613 403.827C745.797 419.415 744.047 427.212 743.646 448.234C743.382 462.037 743.453 463.279 744.138 456.909C745.178 447.246 748.965 432.201 752.688 422.946C756.046 414.596 756.046 414.618 752.838 435.428C751.521 443.966 750.822 450.771 750.729 456.61H748.36V491.76H741.12C740.338 486.539 739.892 481.598 739.827 477.15C739.653 465.223 738.473 473.683 738.364 487.641C738.353 489.033 738.357 490.405 738.375 491.76H723.507C723.5 477.105 724.334 467.823 726.219 460.564C727.85 454.281 726.191 456.858 723.333 465.048C720.456 473.29 718.4 482.528 717.292 491.76H709.697C709.872 486.284 710.187 481.559 710.621 479.215C710.952 477.435 710.855 477.086 710.279 477.976C709.309 479.476 708.051 485.371 707.181 491.76H704.984L695.336 507.534C697.541 495.444 700.443 481.584 701.164 480.077C702.325 477.652 699.132 481.462 694.709 487.653V481.03Z" fill="white"/>
<path d="M723.601 500.76H728.326C728.348 505.642 728.959 515.617 729.696 522.924L725.373 529.641C724.261 522.578 723.939 516.665 723.631 502.232C723.62 501.736 723.61 501.246 723.601 500.76Z" fill="white"/>
<path d="M728.678 549.441C728.346 547.228 727.992 544.952 727.637 542.755L731.93 536.084C733.988 544.475 737.357 554.456 741.307 563.695C742.261 565.926 743.461 569.082 744.789 572.765L728.678 549.441Z" fill="white"/>
<path d="M796.76 591H800.809C800.165 584.622 798.935 577.835 796.76 569.095V591Z" fill="white"/>
<path d="M788.313 539.565C787.988 541.407 787.804 543.482 787.76 545.79V584.439C786.998 582.844 786.176 581.151 785.286 579.376C768.119 545.102 763.414 528.972 760.932 495.883C760.631 491.873 760.081 488.899 759.709 489.274C758.57 490.423 757.615 498.101 757.36 507.405V465.61H761.32C762.512 477.353 765.02 489.276 768.936 501.935C771.363 509.78 771.873 507.622 770.058 497.188C768.607 488.846 768.129 473.222 769.151 465.61H770.995C771.166 466.882 771.419 468.788 771.769 471.774C773.786 489.002 777.445 505.102 784.163 526.307C785.669 531.063 787.049 535.468 788.313 539.565Z" fill="white"/>
<path d="M797.088 541.671C805.955 567.544 808.68 578.605 809.434 591H809.72L809.575 555.969C807.68 549.887 805.276 543.447 802.348 536.565C799.163 536.69 798.427 537.547 798.372 537.611L798.371 537.613C798.155 537.863 797.496 538.95 797.088 541.671Z" fill="white"/>
<path d="M798.526 527.971C796.377 528.403 794.576 529.168 793.124 530.267C792.133 527.447 791.083 524.479 789.972 521.35C789.453 519.89 788.963 518.487 788.501 517.136C789.178 515.098 790.047 513.235 791.107 511.547C792.99 515.988 795.084 520.66 797.312 525.373C797.724 526.246 798.129 527.112 798.526 527.971Z" fill="white"/>
<path d="M818.574 555.706L818.54 547.31C818.54 540.217 817.463 535.15 815.31 532.11C814.268 530.639 812.781 529.524 810.849 528.765C807.399 517.058 805.238 509.099 805.484 508.853C806.137 508.2 817.07 532.335 819.787 540.427C823.374 551.114 824.582 559.724 823.891 569.682C823.592 573.998 823.032 578.832 822.647 580.422C822.047 582.902 821.935 582.482 821.863 577.464C821.783 571.972 820.595 564.247 818.574 555.706Z" fill="white"/>
<path d="M869.341 521.531C869.06 522.409 868.765 523.312 868.457 524.242C868.217 524.969 867.934 525.773 867.616 526.64C868.115 524.838 868.69 523.135 869.341 521.531Z" fill="white"/>
<path d="M874.101 500.753C874.592 495.925 874.629 490.895 874.373 484.586C873.84 471.449 872.285 460.004 871.182 461.107C870.841 461.449 870.562 471.122 870.562 482.604C870.562 492.463 870.416 499.214 869.957 504.311C871.248 503.022 872.631 501.838 874.101 500.753Z" fill="white"/>
<path d="M865.831 509.211C866.051 500.629 865.435 489.941 864.131 481.281L862.576 470.954L861.992 482.107C861.473 492.034 859.242 513.521 858.673 514.09C858.553 514.21 858.004 509.759 857.455 504.198C855.664 486.094 855.472 484.586 854.952 484.586C854.397 484.586 851.599 497.877 851.46 501.17C851.25 506.136 849.846 496.705 849.36 487.064C848.895 477.845 849.262 472.293 851.109 460.626C851.484 458.255 851.046 458.775 848.673 463.518C845.182 470.495 842.73 479.926 841.801 489.956L841.182 496.642C847.161 500.35 851.315 506.028 853.906 512.883C855.84 517.706 857.032 523.446 857.638 529.932C859.114 521.982 861.753 514.974 865.831 509.211Z" fill="white"/>
<path fill-rule="evenodd" clip-rule="evenodd" d="M841.05 496.56L840.431 488.35C839.246 472.639 840.732 461.948 846.194 446.871C849.353 438.152 849.831 435.917 847.335 441.538C845.188 446.372 844.475 445.318 845.696 439.118C846.882 433.096 848.76 428.55 853.127 421.131C858.435 412.113 858.954 411.893 856.412 419.737C855.099 423.79 854.025 427.29 854.025 427.515C854.025 427.74 855.852 424.965 858.085 421.349C863.121 413.195 870.054 405.482 874.667 402.902L878.167 400.944L875.309 405.095C873.738 407.378 872.01 411.048 871.47 413.249C870.929 415.451 870.272 417.996 870.009 418.905C869.544 420.506 869.59 420.503 871.493 418.801C875.314 415.384 877.071 414.98 887.58 415.103C899.214 415.24 907.156 414.202 916.187 411.364C923.096 409.193 926.196 406.54 927.209 401.932C927.9 398.789 926.827 397.481 919.816 392.917C915.768 390.281 913.622 389.47 909.585 389.049C905.264 388.597 904.028 388.081 901.575 385.701C897.994 382.225 897.566 379.525 899.999 375.737L901.193 373.879L904.594 376.128C907.73 378.202 908.654 378.379 916.419 378.4C924.388 378.422 925.007 378.297 927.882 376.108C929.554 374.835 930.922 373.46 930.922 373.052C930.922 372.644 928.038 370.384 924.514 368.029C916.679 362.794 896.124 346.828 888.609 340.14C885.574 337.439 882.31 334.683 881.356 334.015C880.196 333.203 879.804 332.321 880.176 331.355C880.679 330.044 880.8 330.034 881.48 331.247C882.18 332.498 887.165 335.048 888.909 335.048C889.895 335.048 889.224 332.574 886.669 326.786C885.565 324.287 884.243 320.578 883.732 318.545C882.886 315.186 882.7 314.986 881.698 316.355C880.687 317.737 880.418 317.512 878.459 313.649C877.284 311.332 876.049 309.446 875.716 309.457C875.382 309.469 873.858 312.071 872.329 315.24C870.799 318.41 869.497 321.002 869.435 321.002C869.373 321.001 869.319 318.12 869.316 314.599C869.313 309.714 868.927 307.561 867.691 305.512C865.609 302.06 864.774 302.115 864.774 305.703C864.774 309.584 862.919 320.177 862.239 320.177C861.94 320.177 861.444 318.039 861.138 315.426C860.333 308.55 857.818 303.924 853.345 301.09C849.154 298.434 848.223 298.529 850.118 301.419C851.717 303.857 854.028 311.514 854.017 314.337C854.011 316.039 853.622 315.629 852.057 312.269C850.983 309.965 848.661 306.873 846.897 305.398C843.993 302.97 829.527 295.378 827.846 295.4C827.465 295.405 829.199 297.276 831.7 299.558L836.248 303.707L831.287 301.296C828.558 299.971 824.837 298.267 823.018 297.511L819.711 296.136L826.881 303.447L822.469 301.925C816.728 299.944 807.746 299.867 803.743 301.765L800.755 303.182L805.209 304.47C811.016 306.149 811.428 307.522 806.324 308.184C804.137 308.468 801.417 308.92 800.28 309.189C798.234 309.672 798.239 309.683 800.718 310.241C804.325 311.053 812.581 315.985 818.634 320.943C818.952 321.203 815.203 321.416 810.304 321.416C802.072 321.416 801.148 321.58 798.116 323.586C794.566 325.934 791.433 331.524 792.341 333.888C792.826 335.151 793.091 335.098 794.927 333.375C797.313 331.135 797.4 331.346 795.732 335.333C794.027 339.411 794.164 339.775 796.559 337.526C798.69 335.526 799.294 336.388 797.764 339.245C796.319 341.943 798.635 341.931 805.041 339.208C812.341 336.103 818.521 335.849 823.61 338.443C828.169 340.767 839.013 351.932 840.957 356.303C843.173 361.285 842.159 363.05 832.636 370.78C829.988 372.929 829.87 372.559 832.139 369.219C835.393 364.426 834.961 360.05 830.582 353.462L828.819 350.809L826.134 353.409C823.879 355.593 822.689 356.057 818.687 356.314C811.352 356.784 808.12 354.608 804.892 347.027C804.352 345.759 802.795 348.418 802.715 350.745C802.655 352.491 802.402 352.267 801.082 349.299C799.063 344.757 797.235 344.751 792.329 349.27C788.409 352.879 782.783 363.352 778.664 374.704L776.715 380.074L776.23 375.53C775.963 373.031 775.684 371.19 775.609 371.438C775.535 371.687 773.964 376.334 772.118 381.765C767.256 396.073 763.297 412.133 762.761 419.731C762.736 420.075 762.713 420.404 762.69 420.716C762.515 423.156 762.411 424.606 762.593 424.643C762.86 424.697 763.742 421.706 765.918 414.328L766.518 412.295C768.809 404.533 776.06 388.232 776.864 389.036C777.065 389.237 776.806 393.252 776.286 397.957C774.482 414.309 775.593 428.746 779.29 437.01C780.408 439.509 780.421 439.477 779.964 435.428C779.296 429.517 780.793 418.388 783.353 410.23C784.565 406.367 785.822 402.924 786.147 402.579C786.472 402.233 786.41 404.835 786.01 408.362C785.091 416.46 785.61 438.227 786.771 440.282C787.466 441.514 787.766 440.452 788.233 435.106C788.564 431.312 789.155 428.587 789.589 428.854C790.012 429.115 790.364 430.516 790.371 431.965C790.396 437.127 791.785 437.164 792.875 432.034C793.953 426.957 797.657 413.402 798.081 412.978C798.216 412.843 798.161 417.89 797.96 424.193C797.41 441.406 800.089 458.741 805.201 471.036L806.883 475.085L806.269 471.78C805.244 466.267 805.598 444.242 806.73 443.111C807.501 442.34 807.722 442.673 807.722 444.608C807.722 449.69 816.992 478.796 818.612 478.801C818.917 478.802 819.439 477.594 819.772 476.117C820.316 473.707 820.561 474.235 822.168 481.281C822.798 484.04 823.73 487.633 824.731 491.266C826.09 491.432 827.422 491.645 828.725 491.909C828.329 485.337 828.043 475.696 828.038 467.649C828.025 450.572 828.211 447.977 829.852 442.037C832.721 431.651 837.782 422.439 844.454 415.458C847.637 412.128 850.586 409.404 851.008 409.404C851.43 409.404 852.271 408.753 852.876 407.958C854.29 406.099 853.436 408.73 848.386 421.796C842.714 436.469 836.829 455.016 834.916 464.243C833.135 472.835 833.092 481.621 834.865 493.618C836.275 494.132 837.638 494.721 838.951 495.393C839.674 495.756 840.373 496.146 841.05 496.56ZM823.295 447.408C822.611 437.268 826.471 423.029 832.281 414.257C834.337 411.152 843.974 403.412 853.162 397.486L856.846 395.11L852.932 399.687C850.78 402.205 847.82 405.095 846.354 406.11C837.251 412.416 828.307 428.929 825.107 445.342L823.657 452.778L823.295 447.408ZM815.763 442.955C814.717 435.91 815.09 417.603 816.377 412.768C819.089 402.588 828.078 394.393 843.673 387.885C848.66 385.804 848.612 385.855 840.621 391.184C825.064 401.557 818.654 414.236 816.999 437.907C816.426 446.099 816.304 446.597 815.763 442.955ZM822.885 423.711C823.718 412.504 830.319 403.733 844.101 395.518C850.6 391.644 852.738 391.256 847.465 394.908C839.996 400.08 831.595 411.011 825.408 423.609L822.444 429.645L822.885 423.711ZM804.914 418.491C805.455 415.301 809.627 402.956 811.137 400.077C814.479 393.706 821.516 388.409 831.849 384.486C836.555 382.699 838.127 382.992 834.337 384.951C829.649 387.373 821.437 394.593 815.806 401.243C809.805 408.33 808.416 410.585 805.966 417.21C804.731 420.552 804.521 420.807 804.914 418.491ZM802.963 401.597C803.533 392.476 805.569 388.259 811.977 382.931C819.48 376.692 820.988 376.382 815.762 382.152C813.159 385.027 811.029 387.692 811.029 388.075C811.029 388.459 812.425 387.85 814.131 386.722C817.108 384.753 827.959 380.528 826.303 381.982C825.861 382.371 823.23 384.435 820.456 386.569C813.068 392.254 804.414 403.435 804.414 407.297C804.414 408.001 803.99 408.577 803.471 408.577C802.804 408.577 802.655 406.529 802.963 401.597ZM792.873 405.206C792.75 400.609 796.356 385.518 798.743 380.641C800.23 377.603 801.582 374.745 801.747 374.291C802.716 371.635 791.14 385.081 788.933 389.175C785.888 394.823 785.553 393.98 787.767 386.244C789.737 379.361 793.094 372.273 796.493 367.825C797.961 365.903 799.02 363.783 798.846 363.115C798.662 362.406 798.927 362.528 799.481 363.406C800.004 364.235 800.216 365.129 799.953 365.392C799.582 365.763 801.738 370.113 803.298 372.137C803.435 372.315 804.124 371.983 804.828 371.399C806.652 369.886 807.229 370.905 806.207 373.836C805.723 375.222 805.463 376.356 805.629 376.356C805.873 376.356 810.704 374.22 814.693 372.349C815.505 371.968 810.562 378.13 804.549 384.994C800.895 389.165 798.209 393.847 794.81 401.968C793.764 404.467 792.893 405.924 792.873 405.206ZM872.216 384.744C873.353 383.831 875.027 382.529 875.936 381.853C877.556 380.646 877.547 380.612 875.452 380.086C874.144 379.758 871.444 380.208 868.484 381.248C865.826 382.181 863.532 382.826 863.387 382.681C863.241 382.536 864.982 381.213 867.256 379.741C869.529 378.269 871.389 376.733 871.389 376.329C871.389 375.495 861.723 376.134 857.333 377.259C852.649 378.458 852.577 378.158 856.872 375.324C863.962 370.645 862.16 369.105 853.207 372.193C850.711 373.054 848.518 373.608 848.335 373.424C848.151 373.241 848.626 372.851 849.39 372.558C852.197 371.482 854.579 363.964 852.113 363.964C851.516 363.964 849.958 365.079 848.651 366.442C846.123 369.078 843.726 369.968 846.042 367.41C847.708 365.57 847.748 361.377 846.14 356.941C845.482 355.124 844.35 350.477 843.626 346.614C842.903 342.752 841.364 337.919 840.207 335.874C839.051 333.829 836.799 329.74 835.205 326.786C833.61 323.832 830.977 320.022 829.354 318.318C827.523 316.395 826.862 315.22 827.611 315.22C829.151 315.22 836.245 318.927 839.816 321.598C843.148 324.09 844.02 323.561 841.932 320.314C839.791 316.985 835.498 313.549 831.859 312.25C829.762 311.502 829.363 311.15 830.584 311.125C833.334 311.069 840.534 316.332 847.934 323.808C854.331 330.271 854.532 330.585 852.068 330.254C849.744 329.942 849.605 330.038 850.718 331.185C851.4 331.888 854.377 333.424 857.332 334.597L862.707 336.731L856.567 336.283C850.486 335.84 850.441 335.851 851.91 337.473C853.579 339.316 858.483 341.101 866.428 342.759L871.802 343.88L866.014 344.454C855.761 345.472 854.277 345.814 855.976 346.764C856.795 347.222 860.825 348.284 864.932 349.125C872.888 350.754 874.865 351.571 870.847 351.571C867.552 351.571 861.546 353.699 858.986 355.772L856.919 357.447L860.226 356.951C865.664 356.136 877.57 355.013 877.856 355.289C878.002 355.43 876.886 355.806 875.376 356.126C873.865 356.446 870.025 358.061 866.841 359.716C859.785 363.384 861.269 363.939 871.656 361.519C875.637 360.592 880.089 359.858 881.55 359.889C884.191 359.945 884.194 359.95 882.138 360.851C881.001 361.349 877.663 363.276 874.72 365.132L869.37 368.508L872.44 368.764C874.128 368.905 877.652 368.451 880.271 367.755C889.036 365.425 889.419 365.389 886.149 367.202C882.08 369.458 877.177 374.176 877.177 375.835C877.177 377.609 878.789 377.556 880.119 375.738C881.666 373.624 882.26 374.827 881.137 377.799C880.417 379.706 880.403 380.892 881.085 382.386C881.983 384.357 881.909 384.411 877.73 384.855C875.379 385.104 872.712 385.555 871.802 385.857C870.46 386.303 870.537 386.093 872.216 384.744ZM781.006 381.52C781.586 375.317 783.652 369.658 786.892 365.4C792.338 358.242 793.259 362.353 788.023 370.448C786.262 373.171 783.975 377.659 782.941 380.422C781.907 383.184 780.966 385.444 780.85 385.444C780.734 385.444 780.804 383.679 781.006 381.52Z" fill="white"/>
<path d="M836.665 504.434C840.283 506.752 843.077 510.263 845.05 514.966C844.924 518.353 844.843 522.411 844.835 526.307C844.819 534.453 844.326 543.129 843.659 546.962C843.027 550.597 841.964 555.058 841.298 556.876C840.15 560.006 840.082 559.417 840.018 545.723C839.954 531.861 838.828 518.005 836.665 504.434Z" fill="white"/>
<path d="M829.536 501.354C828.878 501.169 828.202 501.001 827.508 500.85C828.715 504.788 829.67 507.544 829.855 507.359C829.975 507.24 829.836 504.79 829.536 501.354Z" fill="white"/>
<path d="M760.663 456.61C760.577 454.687 760.526 452.766 760.509 450.843C760.428 441.286 760.418 441.24 759.257 444.929C758.134 448.495 757.216 452.488 756.547 456.61H760.663Z" fill="white"/>
<path d="M787.76 503.328C785.83 498.366 784.286 493.931 783.269 490.369L781.262 483.346L781.73 489.13C782.309 496.296 784.027 503.762 787.76 514.943V503.328Z" fill="white"/>
<path d="M757.36 517.106C757.902 535.806 761.836 550.134 772.564 573.812C775.427 580.132 777.769 585.931 779.684 591H758.92C758.444 589.67 757.928 588.216 757.36 586.61V517.106Z" fill="white"/>
<path d="M748.36 561.55L743.488 548.201C741.129 542.475 738.714 535.667 736.577 528.862L741.639 520.997C743.232 528.087 745.444 535.128 748.36 542.536V561.55Z" fill="white"/>
<path d="M748.36 521.51V510.551L746.065 514.117C746.778 516.589 747.544 519.06 748.36 521.51Z" fill="white"/>
<path d="M743.044 502.181L743.469 501.52V500.76H742.741C742.839 501.232 742.94 501.706 743.044 502.181Z" fill="white"/>
<path d="M738.734 500.76H729.479C729.861 502.36 730.316 504.475 730.756 506.743C731.372 509.919 732.227 513.55 733.249 517.402L739.394 507.853C739.117 505.524 738.898 503.164 738.734 500.76Z" fill="white"/>
<path d="M598.991 586.518L599.294 559.85C599.294 556.505 599.447 553.485 599.752 550.79C592.605 554.548 585.714 557.407 573.514 562.131C571.781 562.803 570.116 563.456 568.514 564.095V585.285L578.132 584.105L598.991 586.518Z" fill="white"/>
<path d="M550.641 587.477V571.891C540.299 576.965 532.606 582.093 523.342 589.584C523.145 589.744 522.948 589.948 522.751 590.16L522.83 590.889L550.641 587.477Z" fill="white"/>
<path d="M639.954 524.888C638.111 526.455 635.955 528.113 633.371 529.952C635.022 530.202 636.545 530.478 637.94 530.78C638.506 530.902 639.05 531.029 639.574 531.16L639.954 530.78V524.888Z" fill="white"/>
<path d="M527.722 209.066C526.875 206.859 529.155 199.728 532.456 194.26C534.234 191.315 535.688 188.699 535.688 188.447C535.688 188.195 534.208 187.988 532.4 187.988C527.408 187.988 526.158 190.446 526.261 200.048C526.338 207.141 526.806 210.295 527.781 210.295C528.009 210.295 527.982 209.742 527.722 209.066Z" fill="white"/>
<path d="M543.486 193.118C541.862 194.914 539.792 198.112 538.885 200.226C537.978 202.339 536.952 205.377 536.605 206.975C536.042 209.568 535.908 209.208 535.362 203.638C534.68 196.676 535.174 193.613 537.519 190.26C538.847 188.363 539.712 187.988 542.773 187.988C544.943 187.988 546.437 188.369 546.437 188.921C546.437 189.434 545.109 191.323 543.486 193.118Z" fill="white"/>
<path d="M549.708 201.279C550.722 199.293 553.218 195.888 555.254 193.714L558.955 189.759L555.095 189.181C551.677 188.669 551.001 188.836 549.192 190.644C546.722 193.112 545.657 197.301 545.63 204.651C545.604 211.969 546.635 214.614 547.34 209.039C547.628 206.757 548.694 203.265 549.708 201.279Z" fill="white"/>
<path d="M566.178 195.225C561.921 198.804 559.834 201.302 558.103 204.892C557.217 206.728 556.094 209.159 555.607 210.295C554.922 211.89 554.83 210.856 555.203 205.751C555.723 198.615 557.932 192.663 560.586 191.244C562.29 190.333 567.658 191.003 568.412 192.221C568.664 192.628 567.658 193.98 566.178 195.225Z" fill="white"/>
<path d="M569.615 207.51C571.576 203.604 578.725 196.28 580.634 196.221C581.154 196.205 580.648 195.66 579.511 195.011C577.024 193.59 573.403 193.443 571.111 194.669C567.539 196.578 564.527 208.392 565.917 215.035L566.568 218.144L567.081 214.839C567.363 213.022 568.503 209.724 569.615 207.51Z" fill="white"/>
<path d="M589.017 202.12C584.864 204.751 579.214 212.698 577.821 217.866C576.422 223.058 575.939 221.499 576.563 213.807C577.222 205.694 578.575 202.141 582.154 199.132C585.024 196.719 586.144 196.616 589.936 198.413L592.756 199.751L589.017 202.12Z" fill="white"/>
<path d="M588.073 221.014C588.996 216.403 594.831 209.293 601.01 205.25L603.039 203.922L600.411 202.565C598.966 201.818 597.097 201.207 596.257 201.207C594.138 201.207 588.744 206.937 587.814 210.176C586.558 214.55 585.768 224.659 586.727 224.066C587.189 223.782 587.794 222.408 588.073 221.014Z" fill="white"/>
<path d="M606.683 210.997C604.802 212.607 602.067 215.802 600.606 218.099C599.145 220.396 597.531 223.39 597.019 224.753C596.234 226.841 596.161 226.321 596.552 221.449C597.076 214.914 599.51 209.102 602.683 206.805C604.438 205.534 605.195 205.442 607.437 206.223C608.904 206.734 610.105 207.359 610.105 207.612C610.105 207.864 608.565 209.388 606.683 210.997Z" fill="white"/>
<path d="M615.138 225.85C616.547 223.061 619.533 218.995 621.774 216.814C625.608 213.082 625.75 212.797 624.185 211.96C619.254 209.323 613.714 211.693 611.238 217.498C610.038 220.313 609.676 233.874 610.703 237.559C611.181 239.274 611.389 238.885 611.927 235.273C612.284 232.88 613.729 228.639 615.138 225.85Z" fill="white"/>
<path d="M632.284 219.608C626.299 225.73 622.582 236.805 623.697 245.198C623.983 247.358 624.046 249.125 623.835 249.125C622.852 249.125 620.681 239.029 620.257 232.489C619.703 223.942 621.186 218.783 624.973 216.089C627.504 214.288 631.596 213.922 634.118 215.271C635.586 216.056 635.455 216.365 632.284 219.608Z" fill="white"/>
<path d="M637.875 231.766C639.192 228.834 641.573 225.462 643.728 223.477C645.727 221.636 647.149 219.786 646.889 219.366C646.629 218.946 644.936 218.204 643.126 217.717C634.622 215.429 630.035 223.481 632.437 236.48C633.785 243.777 634.311 244.533 635.05 240.232C635.382 238.295 636.654 234.485 637.875 231.766Z" fill="white"/>
<path d="M653.443 251.385C653.736 254.242 654.328 257.505 654.758 258.636C656.079 262.107 654.898 260.92 652.681 256.548C647.632 246.593 646.365 233.113 649.88 226.747C652.569 221.876 655.025 220.757 660.465 221.922C662.781 222.419 664.677 223.004 664.677 223.223C664.677 223.442 663.636 224.495 662.365 225.564C656.805 230.239 652.54 242.581 653.443 251.385Z" fill="white"/>
<path d="M669.244 251.811C669.267 241.44 670.944 236.107 676.313 229.32C678.099 227.062 679.56 225.062 679.56 224.876C679.56 224.393 672.539 222.688 670.554 222.688C668.088 222.688 664.777 227.623 663.846 232.687C662.864 238.023 664.36 248.597 667.135 255.941C668.122 258.554 668.996 260.692 669.077 260.692C669.158 260.692 669.233 256.696 669.244 251.811Z" fill="white"/>
<path d="M691.27 229.688C685.318 235.06 680.57 249.16 681.769 257.901C682.042 259.891 682.085 261.518 681.865 261.518C680.715 261.518 678.549 251.865 678.159 244.995C677.428 232.131 680.759 224.34 686.99 224.34C689.217 224.34 694.443 225.847 694.443 226.489C694.443 226.673 693.015 228.112 691.27 229.688Z" fill="white"/>
<path d="M695.043 256.056C695.349 245.761 699.69 237.822 707.918 232.508L712.869 229.311L709.884 228.065C703.029 225.203 697.496 227.481 694.336 234.467C692.679 238.129 692.383 240.075 692.422 247.06C692.459 253.664 693.745 262.359 694.682 262.341C694.778 262.339 694.941 259.511 695.043 256.056Z" fill="white"/>
<path d="M724.527 238.898C720.021 241.886 713.656 249.693 711.767 254.546C711.247 255.881 710.547 258.647 710.211 260.692L709.6 264.41L708.914 261.105C707.81 255.789 709.653 243.938 712.294 239.366L714.531 235.494L712.135 237.541C710.818 238.668 708.345 240.881 706.639 242.459C703.139 245.7 702.691 244.786 705.221 239.564C708.605 232.581 716.84 229.468 724.875 232.135C728.923 233.479 732.243 235.907 730.032 235.907C729.485 235.907 727.008 237.253 724.527 238.898Z" fill="white"/>
<path d="M733.06 251.733C736.59 248.217 739.431 246.304 743.844 244.47L749.836 241.98L746.234 240.182C741.429 237.785 736.048 237.816 732.414 240.264C726.91 243.969 724.934 248.898 723.893 261.518L723.45 266.888L725.858 261.697C727.368 258.444 730.057 254.723 733.06 251.733Z" fill="white"/>
<path d="M761.575 252.094C756.144 254.798 751.556 258.871 747.795 264.327C746.064 266.839 743.937 270.86 743.069 273.261L741.491 277.629L741.871 272.258C742.491 263.512 743.971 258.371 746.824 255.062L749.429 252.04L746.948 253.601C742.109 256.645 738.023 260.215 735.68 263.448C732.839 267.366 732.748 266.932 735.076 260.554C739.76 247.718 750.452 242.795 761.764 248.267L765.567 250.106L761.575 252.094Z" fill="white"/>
<path d="M765.01 269.046C767.668 267.223 772.301 264.914 775.306 263.915L780.771 262.098L778.055 259.832C774.338 256.732 771.103 256.223 766.907 258.078C762.135 260.187 758.41 264.741 756.828 270.403L756.703 270.849L756.702 270.851C755.428 275.408 754.9 277.295 755.235 277.463C755.471 277.581 756.137 276.842 757.272 275.582L757.43 275.407C758.941 273.731 762.352 270.868 765.01 269.046Z" fill="white"/>
<path d="M789.531 270.004C782.614 272.724 777.059 275.976 773.687 279.278C771.567 281.354 769.024 284.621 768.035 286.537L766.238 290.021L766.785 286.784C768.349 277.541 772.964 270.315 779.162 267.404C783.829 265.212 785.089 265.215 788.704 267.423L791.598 269.191L789.531 270.004Z" fill="white"/>
<path d="M807.13 292.857C812.512 290.692 813.271 288.548 808.809 288.114C804.325 287.679 798.658 291.242 794.036 297.402L791.598 300.651L796.973 297.716C799.928 296.102 804.5 293.915 807.13 292.857Z" fill="white"/>
<path d="M803.848 286.295C801.658 287.07 797.53 288.887 794.674 290.333C791.818 291.778 787.946 294.345 786.069 296.035L782.656 299.109L785.211 294.565C790.017 286.018 794.715 281.589 800.423 280.223C802.193 279.8 803.151 280.212 805.231 282.29L807.829 284.885L803.848 286.295Z" fill="white"/>
<path d="M784.431 286.806C788.617 283.318 797.209 278.885 799.866 278.842C801.346 278.818 801.276 278.601 799.2 276.776C792.739 271.097 782.374 277.288 777.488 289.745C774.85 296.471 774.948 297.109 778.023 293.233C779.424 291.466 782.308 288.574 784.431 286.806Z" fill="white"/>
<path d="M848.808 288.315C850.984 286.667 855.198 286.882 857.448 288.754C858.918 289.978 859.077 290.386 858.09 290.407C857.37 290.422 856.574 290.227 856.321 289.975C856.068 289.722 853.938 289.5 851.587 289.482C847.786 289.452 847.478 289.323 848.808 288.315Z" fill="white"/>
<path d="M851.759 281.346C854.375 281.346 856.847 281.843 857.795 282.559C859.991 284.22 860.562 284.119 860.05 282.163C859.29 279.257 855.053 276.389 851.521 276.389C848.92 276.389 847.764 276.957 845.383 279.408C841.811 283.083 841.624 284.294 844.889 282.607C846.23 281.914 849.322 281.346 851.759 281.346Z" fill="white"/>
<path d="M856.203 272.191C852.592 269.991 847.72 270.169 843.689 272.65C838.332 275.947 837.682 275.23 841.659 270.41C844.309 267.197 848.496 265.467 851.731 266.246C854.056 266.806 857.875 270.255 858.402 272.271C858.774 273.693 858.662 273.689 856.203 272.191Z" fill="white"/>
<path d="M851.796 259.246C854.159 259.468 856.716 259.914 857.479 260.236C858.569 260.697 858.773 260.47 858.435 259.176C857.212 254.504 850.273 252.039 844.79 254.328C842.317 255.361 836.661 261.73 836.661 263.482C836.661 263.717 839.1 262.77 842.08 261.376C846.601 259.262 848.211 258.909 851.796 259.246Z" fill="white"/>
<path d="M852.358 247.378C847.865 246.369 842.585 247.495 838.126 250.413C833.428 253.487 833.16 253.186 836.245 248.304C839.095 243.794 841.65 242.325 846.653 242.325C850.287 242.325 851.236 242.694 853.668 245.049C855.215 246.547 856.383 247.871 856.264 247.99C856.145 248.109 854.387 247.834 852.358 247.378Z" fill="white"/>
<path d="M834.633 239.636C840.161 236.31 843.547 235.493 848.813 236.214C852.549 236.726 852.563 236.718 851.35 234.892C849.666 232.358 843.588 229.297 840.24 229.297C836.394 229.297 832.054 233.456 830.539 238.592C829.902 240.75 829.486 242.516 829.614 242.516C829.742 242.516 832 241.22 834.633 239.636Z" fill="white"/>
<path d="M841.37 224.008C838.844 224.02 835.883 224.654 834.181 225.546C832.589 226.38 829.705 228.354 827.773 229.932C823.862 233.125 823.686 232.922 825.577 227.377C827.879 220.627 833.6 217.99 840.353 220.567C846.092 222.757 846.454 223.982 841.37 224.008Z" fill="white"/>
<path d="M828.806 219.001C830.625 218.231 833.322 217.593 834.799 217.583C838.191 217.561 837.681 216.679 833.473 215.292C826.975 213.149 821.327 216.325 819.642 223.07L819.03 225.517L822.264 222.959C824.043 221.552 826.987 219.771 828.806 219.001Z" fill="white"/>
<path d="M828.806 212.724C825.116 212.82 819.483 215.093 817.749 217.187C816.048 219.241 815.163 218.849 815.163 216.041C815.163 214.438 815.937 212.751 817.296 211.394C819.148 209.543 819.904 209.328 823.034 209.756C825.017 210.028 827.871 210.788 829.377 211.444L832.114 212.639L828.806 212.724Z" fill="white"/>
<path d="M811.909 213.024C812.942 210.34 816.385 208.442 820.128 208.494C821.945 208.519 823.432 208.247 823.432 207.89C823.432 206.567 817.035 204.401 813.89 204.66C809.389 205.03 808.103 207.475 808.948 214.051L809.036 214.737C809.294 216.766 809.431 217.845 809.71 217.883C810.026 217.926 810.525 216.626 811.591 213.851L811.597 213.836C811.696 213.578 811.8 213.307 811.909 213.024Z" fill="white"/>
<path d="M812.967 203.21C809.879 203.888 806.597 207.175 804.86 211.328C804.148 213.032 803.432 214.426 803.268 214.426C802.186 214.426 802.047 207.347 803.088 205.261C804.202 203.032 804.175 202.86 802.714 202.86C801.704 202.86 800.521 204.073 799.412 206.244C797.376 210.231 796.651 209.937 796.836 205.199C797.046 199.849 798.836 198.435 804.638 199.038C807.263 199.31 810.78 200.236 812.454 201.094L815.499 202.655L812.967 203.21Z" fill="white"/>
<path d="M897.55 301.254C895.831 303.255 893.113 306.658 891.511 308.817C889.909 310.975 888.539 312.721 888.468 312.695C888.397 312.67 887.534 311.627 886.549 310.377L884.758 308.104L891.74 303.194C900.512 297.024 901.457 296.708 897.55 301.254Z" fill="white"/>
<path d="M788.772 328.809C789.358 328.447 788.228 330.444 786.26 333.247C781.215 340.434 781.143 340.464 778.639 336.445C776.333 332.744 772.994 326.316 772.994 325.58C772.994 325.334 773.547 325.134 774.222 325.134C774.898 325.134 776.465 326.664 777.704 328.536C778.943 330.407 780.09 331.539 780.252 331.053C780.743 329.581 777.537 323.178 774.681 319.928C771.6 316.422 771.824 316.332 780.071 317.767C782.902 318.26 786.071 318.539 787.115 318.387C788.945 318.121 788.959 318.057 787.52 316.626C786.699 315.809 786.264 314.904 786.554 314.614C787.386 313.783 797.143 312.82 799.66 313.321C802.169 313.821 802.776 315.217 800.487 315.224C799.691 315.226 797.923 316.142 796.559 317.259C794.4 319.028 794.293 319.295 795.732 319.325C797.011 319.351 796.708 319.78 794.399 321.214C792.757 322.234 791.579 323.533 791.781 324.101C791.984 324.669 791.789 325.134 791.349 325.134C790.908 325.134 789.908 326.109 789.127 327.301C788.294 328.572 788.147 329.196 788.772 328.809Z" fill="white"/>
<path d="M821.567 352.23C823.446 350.672 822.656 350.017 819.091 350.176C816.05 350.311 815.542 350.089 815.32 348.529C815.153 347.361 815.682 346.395 816.82 345.786C818.228 345.034 818.382 344.611 817.596 343.665C816.118 341.886 812.884 342.216 811.791 344.258C810.456 346.749 812.167 352.234 814.589 353.233C816.585 354.055 819.948 353.572 821.567 352.23Z" fill="white"/>
<path d="M935.868 391.755C937.016 392.983 938.356 400.972 937.844 403.534C937.574 404.881 936.476 406.807 935.403 407.814L933.453 409.644L932.671 407.589C932.242 406.459 931.628 403.794 931.309 401.666C930.803 398.296 931.017 397.362 932.965 394.42C934.196 392.563 935.502 391.363 935.868 391.755Z" fill="white"/>
<path d="M911.988 429.094C918.38 426.9 922.496 423.267 923.902 418.577C924.435 416.798 924.297 416.652 922.541 417.135C917.323 418.572 903.084 420.242 894.788 420.391L885.527 420.557L888.106 422.622C891.174 425.08 897.836 428.909 900.017 429.468C903.027 430.24 909.21 430.047 911.988 429.094Z" fill="white"/>
<path d="M357.34 587.21C355.187 580.37 352.97 573.087 350.69 565.36C348.537 557.633 346.383 549.97 344.23 542.37C342.077 534.77 340.113 527.677 338.34 521.09C336.567 514.503 335.047 508.803 333.78 503.99C332.513 499.177 331.627 495.757 331.12 493.73L330.36 493.92C330.74 496.2 331.057 499.24 331.31 503.04C331.563 506.713 331.753 510.64 331.88 514.82C332.007 518.873 332.07 522.61 332.07 526.03V593.29H303V473.02H353.92C355.693 479.733 357.53 486.827 359.43 494.3C361.457 501.647 363.42 508.993 365.32 516.34C367.347 523.56 369.12 530.463 370.64 537.05C372.16 543.51 373.237 549.147 373.87 553.96H374.25C374.883 549.147 375.897 543.51 377.29 537.05C378.81 530.59 380.52 523.687 382.42 516.34C384.32 508.993 386.283 501.647 388.31 494.3C390.337 486.827 392.173 479.733 393.82 473.02H443.98V593.29H415.29V526.03C415.29 522.61 415.353 518.873 415.48 514.82C415.607 510.64 415.797 506.713 416.05 503.04C416.43 499.24 416.747 496.2 417 493.92L416.24 493.73C415.733 495.757 414.847 499.177 413.58 503.99C412.313 508.803 410.73 514.567 408.83 521.28C407.057 527.867 405.093 534.96 402.94 542.56C400.787 550.16 398.57 557.823 396.29 565.55C394.137 573.15 392.047 580.37 390.02 587.21H357.34Z" fill="#EFBF43"/>
<path d="M499.531 499.81C511.691 499.81 521.508 501.077 528.981 503.61C536.455 506.143 541.901 510.83 545.321 517.67C548.868 524.383 550.641 534.137 550.641 546.93V593.29H523.091L522.141 584.55H521.571C519.165 587.717 515.428 590.25 510.361 592.15C505.295 594.05 498.708 595 490.601 595C468.688 595 457.731 584.74 457.731 564.22C457.731 555.48 460.581 548.64 466.281 543.7C472.108 538.633 481.228 536.1 493.641 536.1H521.761C520.875 530.78 518.595 527.233 514.921 525.46C511.248 523.56 504.978 522.61 496.111 522.61C490.538 522.61 485.028 523.053 479.581 523.94C474.261 524.7 469.575 525.587 465.521 526.6L464.951 526.22L465.141 504.18C467.675 503.42 470.905 502.723 474.831 502.09C478.758 501.33 482.875 500.76 487.181 500.38C491.615 500 495.731 499.81 499.531 499.81ZM498.391 572.58C506.245 572.58 512.135 571.63 516.061 569.73C519.988 567.703 522.015 564.537 522.141 560.23V555.48H500.671C495.098 555.48 491.171 556.303 488.891 557.95C486.738 559.47 485.661 561.56 485.661 564.22C485.661 567.387 486.801 569.603 489.081 570.87C491.361 572.01 494.465 572.58 498.391 572.58Z" fill="#EFBF43"/>
<path d="M598.914 593.29H568.514V500.76H593.214L595.684 519.76H596.254C597.394 512.667 600.117 507.6 604.424 504.56C608.731 501.393 615.127 499.81 623.614 499.81C627.034 499.81 630.137 500 632.924 500.38C635.711 500.633 638.054 500.887 639.954 501.14V530.78L639.574 531.16C637.547 530.653 635.204 530.21 632.544 529.83C630.011 529.45 627.097 529.26 623.804 529.26C619.117 529.26 614.874 530.02 611.074 531.54C607.401 533.06 604.487 536.037 602.334 540.47C600.307 544.777 599.294 551.237 599.294 559.85L598.914 593.29Z" fill="#EFBF43"/>
<path d="M685.709 593.29H655.309V465.42H685.709V539.9H686.089L710.029 500.76H743.469V501.52L715.349 545.22V545.98L748.029 593.29H713.069L686.279 550.54L685.709 550.35V593.29Z" fill="#EFBF43"/>
<path d="M787.76 593.29H757.36V465.61H787.76V517.67H788.33C790.103 511.97 793.333 507.6 798.02 504.56C802.833 501.393 809.103 499.81 816.83 499.81C824.176 499.81 830.193 501.013 834.88 503.42C839.693 505.827 843.24 510.07 845.52 516.15C847.926 522.103 849.13 530.527 849.13 541.42V593.29H818.73L818.54 547.31C818.54 540.217 817.463 535.15 815.31 532.11C813.156 529.07 809.103 527.55 803.15 527.55C797.83 527.55 793.966 528.943 791.56 531.73C789.153 534.517 787.886 539.203 787.76 545.79V593.29Z" fill="#EFBF43"/>
<path d="M865.151 547.69C865.151 530.717 868.761 518.493 875.981 511.02C883.201 503.547 895.424 499.81 912.651 499.81C924.178 499.81 933.424 501.457 940.391 504.75C947.358 508.043 952.361 513.237 955.401 520.33C958.568 527.297 960.151 536.417 960.151 547.69C960.151 558.837 958.568 567.893 955.401 574.86C952.361 581.827 947.358 586.957 940.391 590.25C933.424 593.417 924.178 595 912.651 595C895.424 595 883.201 591.327 875.981 583.98C868.761 576.507 865.151 564.41 865.151 547.69ZM912.651 568.97C919.998 568.97 924.938 567.387 927.471 564.22C930.131 560.927 931.461 555.227 931.461 547.12C931.461 539.393 930.131 533.883 927.471 530.59C924.938 527.17 919.998 525.46 912.651 525.46C905.558 525.46 900.618 527.17 897.831 530.59C895.171 533.883 893.841 539.393 893.841 547.12C893.841 555.227 895.171 560.927 897.831 564.22C900.618 567.387 905.558 568.97 912.651 568.97Z" fill="#EFBF43"/>
<path d="M1004.66 593.29H974.264V500.76H998.964L1001.43 519.76H1002C1003.14 512.667 1005.87 507.6 1010.17 504.56C1014.48 501.393 1020.88 499.81 1029.36 499.81C1032.78 499.81 1035.89 500 1038.67 500.38C1041.46 500.633 1043.8 500.887 1045.7 501.14V530.78L1045.32 531.16C1043.3 530.653 1040.95 530.21 1038.29 529.83C1035.76 529.45 1032.85 529.26 1029.55 529.26C1024.87 529.26 1020.62 530.02 1016.82 531.54C1013.15 533.06 1010.24 536.037 1008.08 540.47C1006.06 544.777 1005.04 551.237 1005.04 559.85L1004.66 593.29Z" fill="#EFBF43"/>
</svg>
